<svg width="26" height="26" viewBox="0 0 26 26" fill="none" xmlns="http://www.w3.org/2000/svg">
<path d="M20.9365 6.25936C21.6668 7.35233 21.6668 8.87383 21.6668 11.9168C21.6668 14.9598 21.6668 16.4813 20.9365 17.5743C20.6204 18.0475 20.2141 18.4537 19.741 18.7699C18.7862 19.4078 17.5043 19.4885 15.1668 19.4987V19.5002L13.9691 21.8956C13.5699 22.694 12.4304 22.694 12.0312 21.8956L10.8335 19.5002V19.4987C8.49599 19.4885 7.21416 19.4078 6.25936 18.7699C5.7862 18.4537 5.37995 18.0475 5.06379 17.5743C4.3335 16.4813 4.3335 14.9598 4.3335 11.9168C4.3335 8.87383 4.3335 7.35233 5.06379 6.25936C5.37995 5.7862 5.7862 5.37995 6.25936 5.06379C7.35233 4.3335 8.87383 4.3335 11.9168 4.3335H14.0835C17.1265 4.3335 18.648 4.3335 19.741 5.06379C20.2141 5.37995 20.6204 5.7862 20.9365 6.25936Z" fill="white" stroke="white" stroke-width="1.2" stroke-linecap="round" stroke-linejoin="round"/>
<path d="M9.75 9.75L16.25 9.75" stroke="#00A3E0" stroke-width="1.2" stroke-linecap="round" stroke-linejoin="round"/>
<path d="M9.75 14.0835H13" stroke="#00A3E0" stroke-width="1.2" stroke-linecap="round" stroke-linejoin="round"/>
</svg>
