
<svg version="1.0" xmlns="http://www.w3.org/2000/svg"
 width="350px" height="350px" viewBox="0 0 736 700"
 preserveAspectRatio="xMidYMid meet">

<g transform="translate(0.000000,736.000000) scale(0.100000,-0.100000)"
fill="#000000" stroke="none">
<path d="M3470 6535 c-1114 -135 -2053 -896 -2404 -1946 -67 -203 -109 -403
-130 -620 l-11 -122 -85 -35 c-132 -55 -172 -104 -194 -233 -15 -87 -71 -130
-231 -180 -181 -56 -275 -112 -259 -153 13 -34 68 -33 404 4 96 10 224 20 284
22 l109 3 14 -80 c98 -581 379 -1122 802 -1546 477 -476 1078 -760 1755 -829
154 -16 534 -8 676 15 434 68 775 191 1110 400 l105 65 250 0 c248 0 299 4
710 55 66 8 219 19 340 25 304 14 464 40 485 81 27 50 -20 71 -250 115 -167
31 -262 54 -274 65 -5 4 0 29 13 58 44 103 18 164 -93 221 -65 33 -74 35 -170
35 -85 0 -108 -4 -145 -22 -44 -23 -45 -23 -65 -3 -12 10 -38 26 -59 35 -20 8
-37 18 -37 21 0 3 22 37 49 77 187 278 314 572 411 957 108 425 104 901 -11
1359 -32 128 -49 161 -83 161 -49 0 -53 -22 -21 -143 29 -107 30 -121 29 -312
0 -157 -5 -227 -22 -325 -93 -541 -376 -999 -826 -1337 -115 -87 -273 -179
-322 -189 -27 -5 -32 -1 -62 45 -38 58 -91 103 -158 132 -39 18 -59 20 -108
15 -121 -12 -253 -101 -301 -202 -14 -29 -21 -35 -38 -30 -72 21 -121 25 -170
15 -83 -18 -175 -66 -234 -125 -61 -60 -42 -58 -218 -22 -137 28 -281 76 -411
138 -101 47 -254 135 -254 146 0 3 136 4 303 2 325 -3 351 1 345 45 -5 36
-122 70 -466 136 -57 11 -106 21 -108 24 -2 2 3 21 12 42 14 35 14 42 -1 81
-29 77 -117 132 -223 141 -96 8 -175 -11 -222 -53 -20 -19 -42 -34 -47 -34
-17 0 -151 214 -209 333 -31 65 -55 120 -53 121 2 2 283 9 624 15 599 12 630
11 905 -10 196 -14 324 -19 410 -15 235 11 779 91 806 118 29 29 -3 35 -241
46 -230 12 -734 68 -817 92 -42 12 -78 52 -127 139 -44 78 -129 164 -196 196
-111 55 -204 66 -343 41 -53 -10 -75 -10 -77 -2 -2 6 -13 55 -24 108 -22 106
-63 202 -111 260 -39 47 -150 120 -215 142 -27 9 -79 20 -115 23 -124 10 -289
-50 -353 -129 -30 -38 -31 -38 -103 -38 -40 0 -85 -5 -100 -10 -15 -6 -29 -8
-33 -5 -9 10 37 220 76 339 63 198 203 469 251 487 14 5 100 7 196 4 94 -3
308 -9 476 -15 168 -5 485 -12 705 -15 500 -8 878 -20 1109 -36 169 -12 179
-12 191 5 35 47 -26 75 -317 149 -217 55 -318 91 -318 111 0 6 7 20 15 30 18
24 19 73 2 103 -34 61 -155 110 -292 120 -71 5 -124 1 -352 -23 l-63 -7 0 51
c0 39 -6 57 -25 80 -99 118 -463 77 -564 -63 -36 -50 -40 -51 -126 -30 -33 8
-88 15 -122 15 -55 0 -63 -3 -80 -26 -15 -20 -26 -25 -53 -22 l-34 3 69 58
c412 342 958 517 1460 468 244 -24 431 -75 640 -175 152 -73 270 -151 448
-296 173 -141 160 -133 181 -117 24 17 18 27 -83 161 -421 555 -1168 956
-1911 1025 -151 14 -468 12 -600 -4z m571 -105 c506 -50 982 -229 1376 -517
57 -41 103 -76 103 -78 0 -2 -30 9 -67 26 -108 49 -291 106 -424 134 -152 32
-463 45 -624 26 -501 -59 -954 -278 -1305 -630 -201 -202 -349 -423 -456 -679
-268 -641 -219 -1331 134 -1901 l52 -83 -32 8 c-54 12 -180 7 -232 -10 -48
-15 -50 -14 -64 5 -60 87 -360 52 -469 -53 -41 -40 -43 -79 -7 -115 14 -14 24
-26 22 -28 -2 -2 -41 -10 -88 -20 -198 -39 -311 -77 -310 -104 1 -18 22 -33
56 -41 24 -6 255 -5 584 1 355 8 602 8 710 2 l165 -10 85 -62 c169 -126 365
-226 565 -291 100 -32 311 -80 352 -80 16 0 27 -10 36 -32 8 -18 24 -42 36
-52 11 -11 21 -23 21 -27 0 -4 -40 -8 -88 -8 -99 1 -157 -11 -220 -46 l-43
-24 -46 24 c-37 20 -60 25 -122 25 -156 -1 -318 -88 -382 -206 -12 -22 -29
-34 -74 -48 -81 -25 -297 -123 -307 -138 -11 -18 -10 -25 7 -42 25 -24 75 -29
253 -22 92 4 349 6 572 6 224 -1 465 3 540 10 185 15 469 57 486 71 8 6 14 30
14 54 0 41 1 43 48 63 69 30 174 46 250 38 66 -7 125 -26 136 -44 11 -18 -14
-58 -60 -96 -47 -40 -55 -67 -27 -98 9 -10 14 -20 12 -22 -2 -2 -42 -25 -88
-51 -438 -247 -1003 -372 -1509 -336 -335 25 -576 78 -867 193 -741 293 -1335
926 -1584 1690 -152 464 -179 908 -85 1382 82 417 253 805 502 1141 205 277
481 528 787 715 345 211 799 355 1210 383 117 8 371 6 466 -3z m106 -901 c48
-15 58 -34 55 -100 -4 -83 5 -86 192 -65 279 31 441 11 517 -65 19 -19 19 -20
-7 -65 -52 -89 -9 -116 315 -197 116 -28 211 -55 211 -59 0 -4 -6 -5 -12 -3
-36 13 -309 37 -503 45 -347 15 -1154 30 -1578 30 -366 0 -387 1 -378 18 17
31 121 156 181 218 58 61 59 61 137 73 63 9 82 16 98 36 24 29 57 32 155 10
116 -25 136 -22 190 34 31 33 64 55 104 70 100 37 237 46 323 20z m-845 -1296
c80 -38 155 -104 191 -170 29 -55 62 -167 72 -248 4 -31 15 -65 24 -77 17 -20
18 -20 115 -3 244 44 412 -28 506 -216 18 -35 42 -77 53 -93 42 -60 154 -90
451 -121 82 -8 172 -15 200 -16 90 -1 10 -16 -157 -29 -158 -13 -279 -9 -587
16 -96 7 -272 14 -390 14 -255 0 -900 -18 -1018 -29 -74 -6 -84 -5 -93 10 -8
16 -59 196 -59 210 0 10 90 25 380 65 146 19 267 38 269 40 12 11 -18 17 -116
21 -112 5 -441 -19 -503 -37 -19 -5 -37 -6 -42 -2 -26 26 -40 463 -15 494 15
20 78 38 132 38 87 0 115 11 141 51 48 76 156 120 289 116 78 -2 99 -6 157
-34z m-2378 -610 c4 -76 9 -171 13 -210 l6 -73 -101 0 c-103 0 -329 -21 -440
-41 -35 -6 -65 -9 -68 -6 -4 3 34 18 82 33 194 59 277 128 300 249 8 48 25 84
51 107 24 22 124 78 139 78 7 0 13 -48 18 -137z m5632 -59 c-37 -571 -196
-1032 -507 -1468 -78 -110 -90 -122 -135 -139 -89 -33 -84 -34 -84 14 0 106
-81 190 -249 256 -23 9 -20 13 66 72 300 205 556 505 728 855 64 129 142 347
165 459 6 31 14 57 17 57 3 0 3 -48 -1 -106z m-3250 -844 c40 -20 84 -68 84
-93 0 -5 -13 -21 -30 -35 -34 -30 -39 -66 -11 -81 10 -6 88 -22 172 -36 85
-14 168 -29 184 -34 18 -6 -84 -7 -255 -3 -157 4 -422 7 -590 7 -332 0 -995
-20 -1026 -31 -10 -4 -16 -4 -13 0 3 3 68 22 143 41 132 32 166 46 166 67 0 5
-19 26 -42 47 -50 46 -47 61 19 94 74 38 150 57 225 57 94 0 144 -29 133 -76
-6 -28 26 -70 48 -61 8 3 21 18 29 34 17 36 63 52 153 52 91 1 140 -13 194
-55 24 -19 48 -34 52 -34 5 0 16 12 26 26 43 63 110 126 143 134 54 14 145 4
196 -20z m1784 -386 c44 -22 97 -87 135 -164 63 -128 78 -134 154 -65 59 51
102 63 175 46 64 -15 124 -50 166 -97 l32 -37 -7 -89 c-9 -126 6 -141 92 -88
126 77 315 78 333 0 8 -34 34 -36 78 -8 66 44 126 61 190 55 69 -6 166 -49
188 -83 15 -22 14 -27 -10 -80 -38 -83 -34 -124 14 -149 30 -15 233 -55 388
-76 50 -6 92 -15 92 -19 0 -20 -322 -50 -545 -50 -90 0 -249 -9 -365 -21 -202
-21 -792 -36 -881 -22 l-36 5 33 50 c57 84 40 136 -58 178 -77 34 -242 35
-347 2 -86 -27 -141 -73 -141 -116 0 -31 7 -29 -146 -50 -211 -29 -389 -38
-739 -37 -187 1 -421 -4 -520 -10 -242 -14 -263 -5 -108 45 65 22 128 43 140
47 13 5 30 25 39 48 28 70 162 145 282 157 78 9 124 -11 152 -66 11 -22 28
-44 37 -47 25 -10 48 11 49 44 1 41 10 52 63 76 39 18 71 21 206 25 88 2 164
8 169 12 18 17 -5 56 -58 98 -30 24 -60 56 -66 72 -35 84 79 190 237 222 46 9
62 8 117 -11 35 -12 70 -19 78 -16 8 3 24 26 36 51 70 144 240 225 352 168z"/>
<path d="M3869 5189 c-94 -10 -141 -21 -146 -36 -7 -19 58 -23 207 -13 80 5
198 10 262 10 110 0 157 11 105 24 -94 23 -287 30 -428 15z"/>
<path d="M5840 1619 c-127 -13 -311 -38 -321 -45 -15 -9 -10 -33 10 -44 32
-17 191 -11 446 15 288 30 335 37 338 50 6 29 -277 43 -473 24z"/>
</g>
</svg>
