<svg width="30" height="32" viewBox="0 0 30 32" fill="none" xmlns="http://www.w3.org/2000/svg">
<path d="M14.9772 13.2582H18.7662C19.4001 13.2582 19.9892 12.9225 20.3245 12.3701L22.1199 9.41186C22.1306 9.39426 22.1294 9.37228 22.1158 9.35691C21.9564 9.17642 20.9427 8.06536 19.3606 7.14768M14.9772 13.2582H11.2441C10.6048 13.2582 10.0118 12.9172 9.6774 12.3578C9.00345 11.2305 7.92892 9.43861 7.87397 9.38222C7.82666 9.33367 8.99679 8.02011 10.7082 7.03796M14.9772 13.2582L17.2033 9.59449M14.9772 5.88338C16.6766 5.88338 18.1775 6.46147 19.3606 7.14768M14.9772 5.88338V6.96728M14.9772 5.88338C13.3109 5.88339 11.904 6.35169 10.7082 7.03796M19.3606 7.14768V8.02759M10.7082 7.03796V8.02759M5.31475 30.6946H24.6852C27.0682 30.6946 29 28.7114 29 26.2649V6.40178C29 3.95531 27.0682 1.97205 24.6852 1.97205H5.31475C2.93178 1.97205 1 3.9553 1 6.40178V26.2649C1 28.7114 2.93178 30.6946 5.31475 30.6946Z" stroke="black" stroke-width="2" stroke-linecap="round"/>
</svg>
