<svg width="64" height="32" viewBox="0 0 64 32" fill="none"
    xmlns="http://www.w3.org/2000/svg">
    <path d="M25 15.8084C25 14.4506 25 13.7717 25.2745 13.175C25.5489 12.5783 26.0644 12.1365 27.0953 11.2528L28.0953 10.3957C29.9586 8.79856 30.8902 8 32 8C33.1098 8 34.0414 8.79856 35.9047 10.3957L36.9047 11.2528C37.9356 12.1365 38.4511 12.5783 38.7255 13.175C39 13.7717 39 14.4506 39 15.8084V20.0488C39 21.9344 39 22.8772 38.4142 23.463C37.8284 24.0488 36.8856 24.0488 35 24.0488H29C27.1144 24.0488 26.1716 24.0488 25.5858 23.463C25 22.8772 25 21.9344 25 20.0488V15.8084Z" stroke="currentColor" stroke-width="1.5"/>
    <path d="M34.5 24V19C34.5 18.4477 34.0523 18 33.5 18H30.5C29.9477 18 29.5 18.4477 29.5 19V24" stroke="currentColor" stroke-width="1.5" stroke-linecap="round" stroke-linejoin="round"/>
</svg>
