<svg width="64" height="32" viewBox="0 0 64 32" fill="none"
    xmlns="http://www.w3.org/2000/svg">
    <path d="M23.7584 22.2201C23.7584 22.6119 24.0145 22.868 24.4062 22.868H39.4958C39.9026 22.868 40.2416 22.5516 40.2416 22.1297C40.2416 21.7078 39.9026 21.3914 39.4958 21.3914H25.4459C25.2877 21.3914 25.2349 21.3387 25.2349 21.1805V17.0823L28.4291 15.229C28.6853 15.4701 29.0243 15.6208 29.4085 15.6208C29.7324 15.6208 30.0413 15.5078 30.2824 15.3194L31.6987 16.5248C31.6459 16.6755 31.6158 16.8412 31.6158 17.0069C31.6158 17.8055 32.2561 18.4458 33.0471 18.4458C33.8382 18.4458 34.486 17.8055 34.486 17.0069C34.486 16.9467 34.4785 16.8789 34.471 16.8186L37.9213 14.7544C38.1473 14.9126 38.4261 15.003 38.7199 15.003C39.5109 15.003 40.1588 14.3552 40.1588 13.5641C40.1588 12.7731 39.5109 12.1252 38.7199 12.1252C37.9288 12.1252 37.281 12.7731 37.281 13.5641C37.281 13.6621 37.296 13.76 37.3111 13.8504L33.9286 15.8769C33.6875 15.6886 33.3786 15.5756 33.0471 15.5756C32.8136 15.5756 32.5876 15.6283 32.3842 15.7338L30.8248 14.4079C30.8323 14.3326 30.8398 14.2572 30.8398 14.1819C30.8398 13.3909 30.1995 12.743 29.4085 12.743C28.6099 12.743 27.9696 13.3909 27.9696 14.1819C27.9696 14.2045 27.9696 14.2271 27.9696 14.2497L25.2349 15.8317V9.33786C25.2349 8.92351 24.9185 8.59204 24.4966 8.59204C24.0748 8.59204 23.7584 8.92351 23.7584 9.33786V22.2201Z" fill="currentColor"/>
</svg>
