<?xml version="1.0" encoding="UTF-8"?>
<svg version="1.1" xmlns="http://www.w3.org/2000/svg" width="84" height="109">
<path d="M0 0 C27.72 0 55.44 0 84 0 C84 35.97 84 71.94 84 109 C56.28 109 28.56 109 0 109 C0 73.03 0 37.06 0 0 Z " fill="#E9E9E8" transform="translate(0,0)"/>
<path d="M0 0 C1.32 0.33 2.64 0.66 4 1 C4 1.66 4 2.32 4 3 C6.97 3.99 9.94 4.98 13 6 C12.01 6.5259375 12.01 6.5259375 11 7.0625 C8.58896039 8.96557142 8.58896039 8.96557142 8.75 12.6875 C8.87375 14.3271875 8.87375 14.3271875 9 16 C10.093125 16.268125 11.18625 16.53625 12.3125 16.8125 C17.13357731 18.36505032 17.13357731 18.36505032 19 21 C19 21.66 19 22.32 19 23 C19.94875 22.979375 20.8975 22.95875 21.875 22.9375 C25 23 25 23 27 24 C27 24.66 27 25.32 27 26 C28.43655854 26.08131463 29.8744483 26.13933559 31.3125 26.1875 C32.11300781 26.22230469 32.91351563 26.25710937 33.73828125 26.29296875 C36.50708741 25.9343151 37.18360958 25.02945675 39 23 C39.66 23 40.32 23 41 23 C40.525625 22.62875 40.05125 22.2575 39.5625 21.875 C37.47794198 19.37353038 37.35378509 17.18406582 37 14 C36.443125 14.350625 35.88625 14.70125 35.3125 15.0625 C32.46113217 16.21845993 30.91482778 15.80967438 28 15 C27.67 13.68 27.34 12.36 27 11 C30 10 30 10 32 10 C32.99 7.03 33.98 4.06 35 1 C40.06672565 0.89458048 44.9318481 1.27297696 49.9375 2 C50.96327148 2.14308594 50.96327148 2.14308594 52.00976562 2.2890625 C53.67377707 2.52179137 55.33698053 2.76028548 57 3 C57 4.65 57 6.3 57 8 C58.65 7.67 60.3 7.34 62 7 C62 7.66 62 8.32 62 9 C62.639375 8.835 63.27875 8.67 63.9375 8.5 C66.64111562 7.84457803 69.21338247 8 72 8 C72 9.32 72 10.64 72 12 C69.03 12.99 66.06 13.98 63 15 C63.33 13.68 63.66 12.36 64 11 C63.34 11 62.68 11 62 11 C62 12.65 62 14.3 62 16 C57.545 15.01 57.545 15.01 53 14 C52.525625 15.423125 52.05125 16.84625 51.5625 18.3125 C50.70833333 20.875 49.85416667 23.4375 49 26 C48.80154832 27.83016552 48.63817103 29.66429914 48.5 31.5 C48.26621969 34.60593842 47.98926426 37.03220722 47 40 C48.2375 39.79375 49.475 39.5875 50.75 39.375 C54.20319878 38.79946687 55.98029681 39.21810308 59 41 C58.97679687 39.89140625 58.95359375 38.7828125 58.9296875 37.640625 C58.91092423 36.17709008 58.89272463 34.71354786 58.875 33.25 C58.85824219 32.52039063 58.84148438 31.79078125 58.82421875 31.0390625 C58.78927761 27.1955376 58.82500316 24.25393228 61 21 C62.65 21 64.3 21 66 21 C66.495 22.98 66.495 22.98 67 25 C69.27106746 24.35498084 71.54185907 23.70901747 73.8125 23.0625 C75.07707031 22.70285156 76.34164062 22.34320313 77.64453125 21.97265625 C79.77501982 21.35508739 81.89563892 20.70145369 84 20 C84 30.89 84 41.78 84 53 C56.28 53 28.56 53 0 53 C0 35.51 0 18.02 0 0 Z " fill="#73675E" transform="translate(0,56)"/>
<path d="M0 0 C15.84 0 31.68 0 48 0 C48 12.87 48 25.74 48 39 C45.36 38.01 42.72 37.02 40 36 C37.12482102 36.18559948 37.12482102 36.18559948 35 37 C35 35.02 35 33.04 35 31 C34.05125 31.515625 33.1025 32.03125 32.125 32.5625 C31.09375 33.036875 30.0625 33.51125 29 34 C28.01 33.505 28.01 33.505 27 33 C27 33.99 27 34.98 27 36 C27.99 36 28.98 36 30 36 C30 36.66 30 37.32 30 38 C27.525 38.495 27.525 38.495 25 39 C24.505 35.535 24.505 35.535 24 32 C24 33.65 24 35.3 24 37 C10.21846097 41.05339383 -2.13832982 39.59082959 -16 37 C-16 35.02 -16 33.04 -16 31 C-15.09636719 31.01160156 -14.19273438 31.02320312 -13.26171875 31.03515625 C-11.49248047 31.04869141 -11.49248047 31.04869141 -9.6875 31.0625 C-8.51574219 31.07410156 -7.34398437 31.08570312 -6.13671875 31.09765625 C-2.96940805 31.14899898 -2.96940805 31.14899898 0 30 C2.57280167 30.65286453 5.02272755 31.52982322 7.52734375 32.40625 C10.21437679 33.05147752 11.41899968 32.84631579 14 32 C16.33094534 31.6503582 18.66404762 31.31445513 21 31 C18.525 28.03 18.525 28.03 16 25 C15.05125 25.37125 14.1025 25.7425 13.125 26.125 C8.22824116 27.57291227 3.82229886 26.2613659 -1 25 C-1 24.34 -1 23.68 -1 23 C-2.155 22.87625 -3.31 22.7525 -4.5 22.625 C-8.78350375 22.09721115 -12.83352672 21.11601963 -17 20 C-17 18.35 -17 16.7 -17 15 C-10.9490696 16.16554807 -4.96533774 17.45343096 1 19 C1 19.99 1 20.98 1 22 C2.65 21.34 4.3 20.68 6 20 C5.67 20 5.34 20 5 20 C4.01 20 3.02 20 2 20 C2 17.36 2 14.72 2 12 C-1.63 11.67 -5.26 11.34 -9 11 C-7.93197254 6.72789016 -7.56121574 6.15831257 -4 4 C-3.34 4 -2.68 4 -2 4 C-1.34 2.68 -0.68 1.36 0 0 Z " fill="#FBCD9F" transform="translate(36,0)"/>
<path d="M0 0 C4.09413131 -0.40941313 6.51699404 -0.24384767 10.21875 1.625 C12.57777851 3.71183291 12.98076925 4.87834547 13.47998047 8.03637695 C13.59181473 11.81168528 13.52167358 15.53847608 13.375 19.3125 C13.33439453 21.28186523 13.33439453 21.28186523 13.29296875 23.29101562 C13.2223216 26.52900979 13.12370566 29.76366958 13 33 C11.59822022 33.65783536 10.19247247 34.30721868 8.78515625 34.953125 C7.61158569 35.49694824 7.61158569 35.49694824 6.41430664 36.05175781 C2.92703939 37.42141561 -0.27535724 37.72911689 -4 38 C-4.33 37.01 -4.66 36.02 -5 35 C-6.65 34.67 -8.3 34.34 -10 34 C-11.10789535 38.05308333 -11.33731267 42.07111374 -11.5625 46.25 C-11.62727539 47.36761719 -11.62727539 47.36761719 -11.69335938 48.5078125 C-11.79896725 50.338349 -11.89994201 52.16915176 -12 54 C-12.61488281 53.9278125 -13.22976562 53.855625 -13.86328125 53.78125 C-15.07564453 53.64203125 -15.07564453 53.64203125 -16.3125 53.5 C-17.51326172 53.36078125 -17.51326172 53.36078125 -18.73828125 53.21875 C-21.11896555 52.95186537 -21.11896555 52.95186537 -24 53 C-23.84227842 43.30729202 -22.31817402 35.70008492 -18 27 C-15.36 27.33 -12.72 27.66 -10 28 C-9.67 26.68 -9.34 25.36 -9 24 C-8.34 24 -7.68 24 -7 24 C-7.33 25.32 -7.66 26.64 -8 28 C-7.071875 27.505 -6.14375 27.01 -5.1875 26.5 C-2 25 -2 25 1 25 C1 23.68 1 22.36 1 21 C-0.65 21 -2.3 21 -4 21 C-4 21.66 -4 22.32 -4 23 C-5.65 22.67 -7.3 22.34 -9 22 C-9 21.34 -9 20.68 -9 20 C-10.65 20.33 -12.3 20.66 -14 21 C-14 19.35 -14 17.7 -14 16 C-14.66644531 16.02320312 -15.33289062 16.04640625 -16.01953125 16.0703125 C-22.91756737 16.20537894 -29.26300148 15.45946583 -36 14 C-36.0825 15.0725 -36.165 16.145 -36.25 17.25 C-37.05476902 21.2738451 -37.87729874 22.48169253 -41 25 C-41.99 24.67 -42.98 24.34 -44 24 C-43.67 24.99 -43.34 25.98 -43 27 C-39.62182575 27.84454356 -37.32534757 28.10844919 -34 27 C-33.505 29.97 -33.505 29.97 -33 33 C-32.01 33.33 -31.02 33.66 -30 34 C-30 36 -30 36 -31.9375 38.1875 C-36.18723505 40.70264931 -39.30190482 39.94166614 -44 39 C-44 38.34 -44 37.68 -44 37 C-45.258125 36.9175 -46.51625 36.835 -47.8125 36.75 C-51.77956684 36.26451979 -51.77956684 36.26451979 -53.5625 34.125 C-54.036875 33.42375 -54.51125 32.7225 -55 32 C-56.794375 31.3503125 -56.794375 31.3503125 -58.625 30.6875 C-59.73875 30.130625 -60.8525 29.57375 -62 29 C-62.9375 25.3125 -62.9375 25.3125 -63 22 C-62.01 21.34 -61.02 20.68 -60 20 C-63.465 18.02 -63.465 18.02 -67 16 C-67 15.34 -67 14.68 -67 14 C-68.32 13.67 -69.64 13.34 -71 13 C-71 11.68 -71 10.36 -71 9 C-63.375 7.875 -63.375 7.875 -60 9 C-60 8.01 -60 7.02 -60 6 C-58.68 6 -57.36 6 -56 6 C-56 5.34 -56 4.68 -56 4 C-54.68 4.66 -53.36 5.32 -52 6 C-52.33 6.99 -52.66 7.98 -53 9 C-52.26394531 8.4225 -51.52789062 7.845 -50.76953125 7.25 C-49.79371094 6.5075 -48.81789063 5.765 -47.8125 5 C-46.84957031 4.2575 -45.88664062 3.515 -44.89453125 2.75 C-41.86861311 0.92056501 -40.45248521 0.59605292 -37 1 C-35.875 5.75 -35.875 5.75 -37 8 C-36.42967041 8.0417334 -35.85934082 8.0834668 -35.27172852 8.12646484 C-26.85949251 8.84414392 -18.73280149 10.60460761 -10.48632812 12.359375 C-9.40673828 12.58367188 -8.32714844 12.80796875 -7.21484375 13.0390625 C-6.23636475 13.24740723 -5.25788574 13.45575195 -4.24975586 13.67041016 C-3.50733643 13.7791748 -2.76491699 13.88793945 -2 14 C-1.67 13.67 -1.34 13.34 -1 13 C1.32817964 12.63239269 3.6618385 12.29758419 6 12 C5.195625 11.38125 4.39125 10.7625 3.5625 10.125 C1 8 1 8 0 6 C-0.039992 4.00039988 -0.04346799 1.99952758 0 0 Z " fill="#F9CEA0" transform="translate(71,43)"/>
<path d="M0 0 C0.66 0 1.32 0 2 0 C2 10.89 2 21.78 2 33 C-25.72 33 -53.44 33 -82 33 C-82 30.03 -82 27.06 -82 24 C-80.77023438 24.01160156 -79.54046875 24.02320312 -78.2734375 24.03515625 C-76.64062653 24.04454022 -75.0078139 24.05363977 -73.375 24.0625 C-72.56675781 24.07087891 -71.75851563 24.07925781 -70.92578125 24.08789062 C-66.49658082 24.1058955 -62.36116576 23.89622662 -58 23 C-58 20.69 -58 18.38 -58 16 C-57.34 16 -56.68 16 -56 16 C-55.67 16.99 -55.34 17.98 -55 19 C-51.16275828 19.90413673 -47.62497726 20.10576898 -43.6875 20.0625 C-42.61886719 20.05347656 -41.55023438 20.04445313 -40.44921875 20.03515625 C-39.23685547 20.01775391 -39.23685547 20.01775391 -38 20 C-38 21.65 -38 23.3 -38 25 C-34.04 24.505 -34.04 24.505 -30 24 C-31.65 23.67 -33.3 23.34 -35 23 C-35 22.01 -35 21.02 -35 20 C-26.96428571 18.66071429 -26.96428571 18.66071429 -23 21 C-23.02320313 19.89140625 -23.04640625 18.7828125 -23.0703125 17.640625 C-23.08907577 16.17709008 -23.10727537 14.71354786 -23.125 13.25 C-23.14175781 12.52039063 -23.15851562 11.79078125 -23.17578125 11.0390625 C-23.21072239 7.1955376 -23.17499684 4.25393228 -21 1 C-19.35 1 -17.7 1 -16 1 C-15.505 2.98 -15.505 2.98 -15 5 C-12.68632778 4.35814255 -10.3741043 3.71172608 -8.0625 3.0625 C-7.40314453 2.88009766 -6.74378906 2.69769531 -6.06445312 2.50976562 C-2.76178827 1.77403899 -2.76178827 1.77403899 0 0 Z " fill="#838281" transform="translate(82,76)"/>
<path d="M0 0 C0.99 0.33 1.98 0.66 3 1 C3.495 5.455 3.495 5.455 4 10 C6.29240007 9.94014621 8.58406206 9.85140973 10.875 9.75 C12.15117188 9.70359375 13.42734375 9.6571875 14.7421875 9.609375 C15.81726562 9.40828125 16.89234375 9.2071875 18 9 C19.40424643 7.11456499 19.40424643 7.11456499 20 5 C22.30415415 3.38709209 23.38529777 2.9121854 26.1875 3.3125 C28 4 28 4 29 5 C31.31 5.33 33.62 5.66 36 6 C36 12.93 36 19.86 36 27 C33.36 26.01 30.72 25.02 28 24 C25.12482102 24.18559948 25.12482102 24.18559948 23 25 C23 23.02 23 21.04 23 19 C22.05125 19.515625 21.1025 20.03125 20.125 20.5625 C19.09375 21.036875 18.0625 21.51125 17 22 C16.34 21.67 15.68 21.34 15 21 C15 21.99 15 22.98 15 24 C15.99 24 16.98 24 18 24 C18 24.66 18 25.32 18 26 C16.35 26.33 14.7 26.66 13 27 C12.505 23.535 12.505 23.535 12 20 C12 21.65 12 23.3 12 25 C-1.78153903 29.05339383 -14.13832982 27.59082959 -28 25 C-28 23.02 -28 21.04 -28 19 C-27.09636719 19.01160156 -26.19273438 19.02320312 -25.26171875 19.03515625 C-23.49248047 19.04869141 -23.49248047 19.04869141 -21.6875 19.0625 C-20.51574219 19.07410156 -19.34398437 19.08570312 -18.13671875 19.09765625 C-14.96940805 19.14899898 -14.96940805 19.14899898 -12 18 C-9.42719833 18.65286453 -6.97727245 19.52982322 -4.47265625 20.40625 C-1.78562321 21.05147752 -0.58100032 20.84631579 2 20 C4.33094534 19.6503582 6.66404762 19.31445513 9 19 C6.525 16.03 6.525 16.03 4 13 C3.05125 13.37125 2.1025 13.7425 1.125 14.125 C-3.77175884 15.57291227 -8.17770114 14.2613659 -13 13 C-13 12.34 -13 11.68 -13 11 C-14.155 10.87625 -15.31 10.7525 -16.5 10.625 C-20.78350375 10.09721115 -24.83352672 9.11601963 -29 8 C-29 6.35 -29 4.7 -29 3 C-22.9490696 4.16554807 -16.96533774 5.45343096 -11 7 C-11 7.99 -11 8.98 -11 10 C-8.50447516 9.21869929 -8.50447516 9.21869929 -6 8 C-5.67 7.01 -5.34 6.02 -5 5 C-4.34 5 -3.68 5 -3 5 C-3 4.01 -3 3.02 -3 2 C-2.01 2 -1.02 2 0 2 C0 1.34 0 0.68 0 0 Z " fill="#F6F2EE" transform="translate(48,12)"/>
<path d="M0 0 C0.99 0 1.98 0 3 0 C3.495 2.475 3.495 2.475 4 5 C4.57234375 4.79503906 5.1446875 4.59007812 5.734375 4.37890625 C9.74352427 3.7084106 12.54029872 6.0971643 16 8 C16 10.97 16 13.94 16 17 C15.154375 16.360625 14.30875 15.72125 13.4375 15.0625 C10.09271435 12.8033727 7.02603008 12.32208241 3 12 C3.98315865 17.93482007 3.98315865 17.93482007 7.625 22.5 C8.40875 22.995 9.1925 23.49 10 24 C8.06860205 25.93139795 4.60390519 25.64084066 2 26 C0.515 26.495 0.515 26.495 -1 27 C-3.29321289 26.6862793 -3.29321289 26.6862793 -5.97265625 26.07421875 C-6.95556641 25.85443359 -7.93847656 25.63464844 -8.95117188 25.40820312 C-10.4912793 25.05145508 -10.4912793 25.05145508 -12.0625 24.6875 C-14.0740389 24.23227746 -16.08575653 23.77784396 -18.09765625 23.32421875 C-19.07750488 23.10169434 -20.05735352 22.87916992 -21.06689453 22.64990234 C-25.36445602 21.69767089 -29.67897449 20.83842575 -34 20 C-34 18.02 -34 16.04 -34 14 C-38.83842472 13.43389546 -41.04082085 15.09171728 -44.8125 18 C-45.78832031 18.7425 -46.76414062 19.485 -47.76953125 20.25 C-48.50558594 20.8275 -49.24164063 21.405 -50 22 C-50 21.01 -50 20.02 -50 19 C-51.43750191 17.31201173 -51.43750191 17.31201173 -53 16 C-53 16.66 -53 17.32 -53 18 C-54.32 18 -55.64 18 -57 18 C-57 18.99 -57 19.98 -57 21 C-60.63 21 -64.26 21 -68 21 C-68 17.7 -68 14.4 -68 11 C-64.7 10.67 -61.4 10.34 -58 10 C-58.33 10.99 -58.66 11.98 -59 13 C-59.66 13 -60.32 13 -61 13 C-61 13.66 -61 14.32 -61 15 C-60.0925 14.67 -59.185 14.34 -58.25 14 C-55 13 -55 13 -51 13 C-51 12.01 -51 11.02 -51 10 C-49.865625 10.165 -48.73125 10.33 -47.5625 10.5 C-40.07861282 11.35427008 -32.51984993 11.07770224 -25 11 C-25.66 12.32 -26.32 13.64 -27 15 C-25.02 15.99 -23.04 16.98 -21 18 C-21 18.66 -21 19.32 -21 20 C-20.4225 19.360625 -19.845 18.72125 -19.25 18.0625 C-17.01937599 16.01776132 -15.92563609 15.41794801 -13 15 C-13 13.68 -13 12.36 -13 11 C-13.99 10.34 -14.98 9.68 -16 9 C-12.7 9 -9.4 9 -6 9 C-5.505 9.99 -5.505 9.99 -5 11 C-5 9.68 -5 8.36 -5 7 C-4.01 7 -3.02 7 -2 7 C-2 6.34 -2 5.68 -2 5 C-2.99 5 -3.98 5 -5 5 C-5 4.01 -5 3.02 -5 2 C-4.360625 1.855625 -3.72125 1.71125 -3.0625 1.5625 C-1.02454854 1.18992819 -1.02454854 1.18992819 0 0 Z " fill="#D6AC82" transform="translate(68,31)"/>
<path d="M0 0 C0.66 0 1.32 0 2 0 C2 0.99 2 1.98 2 3 C4.64 3 7.28 3 10 3 C10.66 4.65 11.32 6.3 12 8 C24.24495434 8.94304696 24.24495434 8.94304696 35 4 C37.04119788 5.61594832 39.04072937 7.2856382 41 9 C41 9.66 41 10.32 41 11 C34.21064698 14.26894775 30.1606304 13.91573146 23 12 C21.33541868 11.65640441 19.66923787 11.32020904 18 11 C18 11.33 18 11.66 18 12 C11.07 11.505 11.07 11.505 4 11 C4 12.98 4 14.96 4 17 C7.45677897 17.37053115 10.9155053 17.71832691 14.375 18.0625 C15.34050781 18.16626953 16.30601563 18.27003906 17.30078125 18.37695312 C27.88371636 19.53817196 27.88371636 19.53817196 38 17 C39.99960012 16.960008 42.00047242 16.95653201 44 17 C43.505 14.03 43.505 14.03 43 11 C45.94650486 13.43406923 46.33883349 15.316358 47 19 C47.99 19.99 47.99 19.99 49 21 C48.34 22.65 47.68 24.3 47 26 C46.67 26 46.34 26 46 26 C46 24.02 46 22.04 46 20 C43.69 20.33 41.38 20.66 39 21 C39.226875 21.763125 39.45375 22.52625 39.6875 23.3125 C40 26 40 26 38.9375 27.6875 C36.43196183 29.38480005 33.89428065 30.16387448 31 31 C30.505 30.01 30.505 30.01 30 29 C28.02111039 28.27306096 26.02045442 27.60183749 24 27 C24.66 25.68 25.32 24.36 26 23 C24.2984375 23.03480469 24.2984375 23.03480469 22.5625 23.0703125 C21.04167332 23.08908814 19.52083943 23.1072864 18 23.125 C16.88431641 23.15013672 16.88431641 23.15013672 15.74609375 23.17578125 C10.49451557 23.22144715 6.0483054 22.45712451 1 21 C1 21.99 1 22.98 1 24 C-2.61973402 25.31626692 -5.09567131 26 -9 26 C-9 24 -9 24 -7.5 22.375 C-7.005 21.92125 -6.51 21.4675 -6 21 C-6.66 21.33 -7.32 21.66 -8 22 C-10.64 22 -13.28 22 -16 22 C-16 15.07 -16 8.14 -16 1 C-15.67 1 -15.34 1 -15 1 C-15 4.3 -15 7.6 -15 11 C-12.66924071 10.04134491 -12.66924071 10.04134491 -11 7 C-10.34 7.66 -9.68 8.32 -9 9 C-9 8.34 -9 7.68 -9 7 C-7.68 7 -6.36 7 -5 7 C-4.67 6.01 -4.34 5.02 -4 4 C-1 5 -1 5 0 7 C0.99 7 1.98 7 3 7 C2.01 6.34 1.02 5.68 0 5 C-0.1875 2.375 -0.1875 2.375 0 0 Z " fill="#B19680" transform="translate(16,20)"/>
<path d="M0 0 C0.66 0 1.32 0 2 0 C2 7.26 2 14.52 2 22 C-1.3 21.67 -4.6 21.34 -8 21 C-8.66 19.35 -9.32 17.7 -10 16 C-11.65 16.66 -13.3 17.32 -15 18 C-15 19.65 -15 21.3 -15 23 C-18.71599191 23.20086443 -19.77208445 23.1519437 -23 21 C-23.27741626 18.28549686 -23.3724247 15.83359648 -23.3125 13.125 C-23.31572266 12.40441406 -23.31894531 11.68382813 -23.32226562 10.94140625 C-23.28391251 7.15490781 -23.10900645 4.20972296 -21 1 C-19.35 1 -17.7 1 -16 1 C-15.67 2.32 -15.34 3.64 -15 5 C-12.68632778 4.35814255 -10.3741043 3.71172608 -8.0625 3.0625 C-7.40314453 2.88009766 -6.74378906 2.69769531 -6.06445312 2.50976562 C-2.76178827 1.77403899 -2.76178827 1.77403899 0 0 Z " fill="#5B412C" transform="translate(82,76)"/>
<path d="M0 0 C0.58007812 0.20496094 1.16015625 0.40992187 1.7578125 0.62109375 C6.1621984 2.14009813 10.35677777 3.4047151 15 4 C15 3.34 15 2.68 15 2 C18.76624671 0.74458443 20.37188934 1.62938042 24 3 C24 6.96 24 10.92 24 15 C25.65 15 27.3 15 29 15 C29.495 15.99 29.495 15.99 30 17 C27.03 17 24.06 17 21 17 C21 15.35 21 13.7 21 12 C19.55367187 12.14308594 19.55367187 12.14308594 18.078125 12.2890625 C16.81484375 12.39992188 15.5515625 12.51078125 14.25 12.625 C12.99703125 12.74101563 11.7440625 12.85703125 10.453125 12.9765625 C7.16413097 12.99888599 5.68979224 12.77961002 3 11 C3 10.01 3 9.02 3 8 C2.34 8 1.68 8 1 8 C1.185625 8.78375 1.37125 9.5675 1.5625 10.375 C2 13 2 13 1 15 C-3.63060779 16.99655555 -7.68136269 17.24229354 -12.6875 17.1875 C-13.99074219 17.18105469 -15.29398438 17.17460938 -16.63671875 17.16796875 C-20 17 -20 17 -23 16 C-23 13.69 -23 11.38 -23 9 C-22.44014404 8.94465088 -21.88028809 8.88930176 -21.3034668 8.83227539 C-18.76444195 8.5792418 -16.225981 8.3209302 -13.6875 8.0625 C-12.80642578 7.97548828 -11.92535156 7.88847656 -11.01757812 7.79882812 C-9.74624023 7.66831055 -9.74624023 7.66831055 -8.44921875 7.53515625 C-7.27879028 7.41732788 -7.27879028 7.41732788 -6.0847168 7.29711914 C-3.81117999 7.03662003 -3.81117999 7.03662003 -1 6 C-0.67 4.02 -0.34 2.04 0 0 Z " fill="#393432" transform="translate(23,84)"/>
<path d="M0 0 C0.99 0.33 1.98 0.66 3 1 C3.33 3.97 3.66 6.94 4 10 C6.29240007 9.94014621 8.58406206 9.85140973 10.875 9.75 C12.15117188 9.70359375 13.42734375 9.6571875 14.7421875 9.609375 C15.81726563 9.40828125 16.89234375 9.2071875 18 9 C19.40424643 7.11456499 19.40424643 7.11456499 20 5 C22.30415415 3.38709209 23.38529777 2.9121854 26.1875 3.3125 C28 4 28 4 29 5 C31.31 5.33 33.62 5.66 36 6 C36 12.93 36 19.86 36 27 C33.36 26.01 30.72 25.02 28 24 C25.12482102 24.18559948 25.12482102 24.18559948 23 25 C23 23.02 23 21.04 23 19 C22.01 18.67 21.02 18.34 20 18 C20.99 17.34 21.98 16.68 23 16 C11.12 13.03 11.12 13.03 -1 10 C-1.33 8.68 -1.66 7.36 -2 6 C-2.99 5.67 -3.98 5.34 -5 5 C-4.34 5 -3.68 5 -3 5 C-3 4.01 -3 3.02 -3 2 C-2.01 2 -1.02 2 0 2 C0 1.34 0 0.68 0 0 Z " fill="#E0D5C7" transform="translate(48,12)"/>
<path d="M0 0 C0.66 0 1.32 0 2 0 C2.33 1.65 2.66 3.3 3 5 C5.31 5.66 7.62 6.32 10 7 C10 6.34 10 5.68 10 5 C13.88019859 6.25844278 15.9411842 7.42416203 18 11 C18 11.99 18 12.98 18 14 C17.01 13.67 16.02 13.34 15 13 C14.33333333 11.66666667 13.66666667 10.33333333 13 9 C12.01 8.67 11.02 8.34 10 8 C10.7339519 10.97747288 10.7339519 10.97747288 12.5625 12.5 C14 14 14 14 14 17 C1.46 17 -11.08 17 -24 17 C-24 14.03 -24 11.06 -24 8 C-22.15535156 8.01740234 -22.15535156 8.01740234 -20.2734375 8.03515625 C-18.64062653 8.04454022 -17.0078139 8.05363977 -15.375 8.0625 C-14.56675781 8.07087891 -13.75851562 8.07925781 -12.92578125 8.08789062 C-8.49658082 8.1058955 -4.36116576 7.89622662 0 7 C0 4.69 0 2.38 0 0 Z " fill="#848383" transform="translate(24,92)"/>
<path d="M0 0 C2.23169537 0.1284429 4.46264615 0.28323481 6.6875 0.5 C4.88639453 4.66777546 2.45061489 6.0179455 -1.3125 8.5 C-1.6425 9.49 -1.9725 10.48 -2.3125 11.5 C3.1325 11.995 3.1325 11.995 8.6875 12.5 C9.8125 18.25 9.8125 18.25 8.6875 20.5 C10.3375 19.84 11.9875 19.18 13.6875 18.5 C13.0275 19.82 12.3675 21.14 11.6875 22.5 C10.3675 22.5 9.0475 22.5 7.6875 22.5 C7.6875 21.51 7.6875 20.52 7.6875 19.5 C6.89085938 19.37882812 6.09421875 19.25765625 5.2734375 19.1328125 C-5.25098858 17.46836555 -5.25098858 17.46836555 -10.3125 15.5 C-10.3125 16.49 -10.3125 17.48 -10.3125 18.5 C-13.9425 18.17 -17.5725 17.84 -21.3125 17.5 C-19.3125 12.5 -19.3125 12.5 -17.3125 10.5 C-16.549375 10.29375 -15.78625 10.0875 -15 9.875 C-11.83292475 8.25463592 -11.77081179 7.49634289 -10.375 4.375 C-7.81231219 -0.2646374 -5.06561532 -0.03057715 0 0 Z " fill="#FDD6A5" transform="translate(29.3125,-0.5)"/>
<path d="M0 0 C5.01361646 0.36894557 8.4172476 2.39110879 12.625 4.88476562 C17.1063886 7.36053276 19.93181403 7.43898665 24.875 6.28515625 C25.205 8.26515625 25.535 10.24515625 25.875 12.28515625 C26.865 12.61515625 27.855 12.94515625 28.875 13.28515625 C28.875 15.28515625 28.875 15.28515625 26.9375 17.47265625 C22.68776495 19.98780556 19.57309518 19.22682239 14.875 18.28515625 C14.875 17.62515625 14.875 16.96515625 14.875 16.28515625 C13.616875 16.20265625 12.35875 16.12015625 11.0625 16.03515625 C7.09543316 15.54967604 7.09543316 15.54967604 5.3125 13.41015625 C4.838125 12.70890625 4.36375 12.00765625 3.875 11.28515625 C2.080625 10.63546875 2.080625 10.63546875 0.25 9.97265625 C-0.86375 9.41578125 -1.9775 8.85890625 -3.125 8.28515625 C-4.125 4.66015625 -4.125 4.66015625 -4.125 1.28515625 C-3.125 0.28515625 -3.125 0.28515625 0 0 Z " fill="#EEE9E5" transform="translate(12.125,63.71484375)"/>
<path d="M0 0 C0.33 0 0.66 0 1 0 C1 2.31 1 4.62 1 7 C2.65 7 4.3 7 6 7 C6.98120464 10.05263664 6.98120464 11.94736336 6 15 C4.68 15 3.36 15 2 15 C2 15.66 2 16.32 2 17 C3.11375 17.0825 4.2275 17.165 5.375 17.25 C9 18 9 18 10.4375 20.0625 C10.623125 20.701875 10.80875 21.34125 11 22 C10.34 22.99 9.68 23.98 9 25 C13.29 25 17.58 25 22 25 C21 30 21 30 19 33 C16.93359375 33.51171875 16.93359375 33.51171875 14.4375 33.6875 C13.63183594 33.75324219 12.82617188 33.81898437 11.99609375 33.88671875 C8.00007282 34.03780689 3.9988762 34 0 34 C0 22.78 0 11.56 0 0 Z " fill="#F8C48B" transform="translate(0,59)"/>
<path d="M0 0 C5.06672565 -0.10541952 9.9318481 0.27297696 14.9375 1 C15.96327148 1.14308594 15.96327148 1.14308594 17.00976562 1.2890625 C18.67377707 1.52179137 20.33698053 1.76028548 22 2 C22 3.65 22 5.3 22 7 C23.65 6.67 25.3 6.34 27 6 C27 6.66 27 7.32 27 8 C27.639375 7.835 28.27875 7.67 28.9375 7.5 C31.64111562 6.84457803 34.21338247 7 37 7 C37 8.32 37 9.64 37 11 C34.03 11.99 31.06 12.98 28 14 C28.33 12.68 28.66 11.36 29 10 C28.34 10 27.68 10 27 10 C27 11.65 27 13.3 27 15 C24.03 14.34 21.06 13.68 18 13 C17.67 13.66 17.34 14.32 17 15 C16.67 14.01 16.34 13.02 16 12 C15.34 12 14.68 12 14 12 C12.62689293 10.70766393 11.28965176 9.37562854 10 8 C10 8.99 10 9.98 10 11 C9.01 11 8.02 11 7 11 C7 10.34 7 9.68 7 9 C6.01 9 5.02 9 4 9 C4 9.66 4 10.32 4 11 C5.670625 11.4021875 5.670625 11.4021875 7.375 11.8125 C11 13 11 13 13 16 C6 16 6 16 4.515625 14.6875 C3.34375 13.125 2.171875 11.5625 1 10 C1.33 9.34 1.66 8.68 2 8 C1.34 7.67 0.68 7.34 0 7 C2.31 6.34 4.62 5.68 7 5 C5.5459375 4.5978125 5.5459375 4.5978125 4.0625 4.1875 C3.051875 3.795625 2.04125 3.40375 1 3 C0.67 2.01 0.34 1.02 0 0 Z " fill="#776453" transform="translate(35,57)"/>
<path d="M0 0 C1.32 0.66 2.64 1.32 4 2 C3.34 3.98 2.68 5.96 2 8 C2.680625 8.20625 3.36125 8.4125 4.0625 8.625 C7.92917854 10.43493463 11.06417577 12.89844375 14 16 C14.33 16.99 14.66 17.98 15 19 C14.01 19.33 13.02 19.66 12 20 C11.67 20.99 11.34 21.98 11 23 C10.33613281 22.65066406 9.67226563 22.30132812 8.98828125 21.94140625 C8.10527344 21.48636719 7.22226562 21.03132813 6.3125 20.5625 C5.44238281 20.11003906 4.57226562 19.65757813 3.67578125 19.19140625 C1.08709297 18.03877862 -1.23184484 17.52499494 -4 17 C-5.5625 15.5625 -5.5625 15.5625 -7 14 C-9.09989652 12.82425289 -9.09989652 12.82425289 -11 12 C-11 11.34 -11 10.68 -11 10 C-12.32 9.67 -13.64 9.34 -15 9 C-15 7.68 -15 6.36 -15 5 C-7.375 3.875 -7.375 3.875 -4 5 C-4 4.01 -4 3.02 -4 2 C-2.68 2 -1.36 2 0 2 C0 1.34 0 0.68 0 0 Z " fill="#E7AF82" transform="translate(15,47)"/>
<path d="M0 0 C2.31 0.33 4.62 0.66 7 1 C7.6628181 3.57762596 8.09639157 5.52492725 7.5625 8.15625 C6.82852438 11.8669045 6.6431018 15.54088659 6.4375 19.3125 C6.39431641 20.05306641 6.35113281 20.79363281 6.30664062 21.55664062 C6.20129568 23.37091464 6.10021684 25.1854355 6 27 C5.38511719 26.9278125 4.77023438 26.855625 4.13671875 26.78125 C2.92435547 26.64203125 2.92435547 26.64203125 1.6875 26.5 C0.48673828 26.36078125 0.48673828 26.36078125 -0.73828125 26.21875 C-3.11896555 25.95186537 -3.11896555 25.95186537 -6 26 C-5.84227842 16.30729202 -4.31817402 8.70008492 0 0 Z " fill="#F5F4F3" transform="translate(53,70)"/>
<path d="M0 0 C2.64 0 5.28 0 8 0 C8.33 1.65 8.66 3.3 9 5 C10.98 5 12.96 5 15 5 C15 5.66 15 6.32 15 7 C15.66 7 16.32 7 17 7 C16.67 8.98 16.34 10.96 16 13 C14.68 12.67 13.36 12.34 12 12 C12.33 12.99 12.66 13.98 13 15 C11.68 14.67 10.36 14.34 9 14 C9 14.99 9 15.98 9 17 C6.46815512 19.35723489 5.52809907 20 2 20 C2 17.36 2 14.72 2 12 C-1.63 11.67 -5.26 11.34 -9 11 C-7.93197254 6.72789016 -7.56121574 6.15831257 -4 4 C-3.34 4 -2.68 4 -2 4 C-1.34 2.68 -0.68 1.36 0 0 Z " fill="#EDB37A" transform="translate(36,0)"/>
<path d="M0 0 C0 1.65 0 3.3 0 5 C-0.845625 4.360625 -1.69125 3.72125 -2.5625 3.0625 C-5.90728565 0.8033727 -8.97396992 0.32208241 -13 0 C-12.01684135 5.93482007 -12.01684135 5.93482007 -8.375 10.5 C-7.59125 10.995 -6.8075 11.49 -6 12 C-7.93139795 13.93139795 -11.39609481 13.64084066 -14 14 C-14.99 14.33 -15.98 14.66 -17 15 C-19.61324385 14.43165516 -22.12423315 13.80204198 -24.6875 13.0625 C-25.38939453 12.86720703 -26.09128906 12.67191406 -26.81445312 12.47070312 C-28.54508944 11.98800864 -30.27284066 11.49499154 -32 11 C-31.67 10.01 -31.34 9.02 -31 8 C-26.92532275 6.51117562 -23.33458585 5.73729783 -19 6 C-19.020625 4.906875 -19.04125 3.81375 -19.0625 2.6875 C-19 -1 -19 -1 -18 -4 C-10.86796682 -5.83395139 -6.21366495 -3.31498254 0 0 Z " fill="#96643E" transform="translate(84,43)"/>
<path d="M0 0 C2.64 0.33 5.28 0.66 8 1 C8 4.63 8 8.26 8 12 C-1.57 12 -11.14 12 -21 12 C-20.01 10.68 -19.02 9.36 -18 8 C-18 7.34 -18 6.68 -18 6 C-16.68 6 -15.36 6 -14 6 C-14 5.01 -14 4.02 -14 3 C-12.02 3 -10.04 3 -8 3 C-8 3.66 -8 4.32 -8 5 C-7.13375 4.505 -7.13375 4.505 -6.25 4 C-4 3 -4 3 0 3 C0 2.01 0 1.02 0 0 Z " fill="#AFAFAF" transform="translate(76,97)"/>
<path d="M0 0 C-0.33 0.99 -0.66 1.98 -1 3 C-1.66 3 -2.32 3 -3 3 C-3 3.66 -3 4.32 -3 5 C-2.0925 4.67 -1.185 4.34 -0.25 4 C3 3 3 3 7 3 C7 2.01 7 1.02 7 0 C14.68897931 0.51405694 22.34855794 1.0765501 30 2 C29.67 2.66 29.34 3.32 29 4 C28.34 4 27.68 4 27 4 C27 5.98 27 7.96 27 10 C26.01 10 25.02 10 24 10 C24 8.02 24 6.04 24 4 C19.16157528 3.43389546 16.95917915 5.09171728 13.1875 8 C12.21167969 8.7425 11.23585938 9.485 10.23046875 10.25 C9.49441406 10.8275 8.75835938 11.405 8 12 C8 11.01 8 10.02 8 9 C6.56249809 7.31201173 6.56249809 7.31201173 5 6 C5 6.66 5 7.32 5 8 C3.68 8 2.36 8 1 8 C1 8.99 1 9.98 1 11 C-2.63 11 -6.26 11 -10 11 C-10 7.7 -10 4.4 -10 1 C-2.25 0 -2.25 0 0 0 Z " fill="#4A3629" transform="translate(10,41)"/>
<path d="M0 0 C6.23018637 -0.38143998 11.92610337 0.66368283 17.98266602 2.02075195 C19.64717308 2.38549132 21.32304682 2.69759861 23 3 C23.33 2.67 23.66 2.34 24 2 C25.51928038 1.92820036 27.04167482 1.91607993 28.5625 1.9375 C29.38878906 1.94652344 30.21507813 1.95554688 31.06640625 1.96484375 C31.70449219 1.97644531 32.34257813 1.98804688 33 2 C33.69289369 5.72430357 34.11144596 9.21083746 34 13 C33.34 13 32.68 13 32 13 C30.33333333 11.33333333 28.66666667 9.66666667 27 8 C26.34 8 25.68 8 25 8 C25 8.66 25 9.32 25 10 C23.68 10 22.36 10 21 10 C21 10.66 21 11.32 21 12 C18.525 11.505 18.525 11.505 16 11 C16 10.34 16 9.68 16 9 C14.35 9.33 12.7 9.66 11 10 C11 8.02 11 6.04 11 4 C10.38511719 4.01160156 9.77023438 4.02320313 9.13671875 4.03515625 C8.32847656 4.04417969 7.52023438 4.05320312 6.6875 4.0625 C5.48673828 4.07990234 5.48673828 4.07990234 4.26171875 4.09765625 C2 4 2 4 -1 3 C-0.67 2.01 -0.34 1.02 0 0 Z " fill="#DAD3CC" transform="translate(46,54)"/>
<path d="M0 0 C0.99 1.485 0.99 1.485 2 3 C1.67 3.66 1.34 4.32 1 5 C2.65 5 4.3 5 6 5 C6 4.34 6 3.68 6 3 C6.886875 3.20625 7.77375 3.4125 8.6875 3.625 C12.26484991 4.02998301 13.78636245 3.42828336 17 2 C17.66 2.33 18.32 2.66 19 3 C19 3.66 19 4.32 19 5 C18.34 5.66 17.68 6.32 17 7 C18.32 7.66 19.64 8.32 21 9 C21 9.66 21 10.32 21 11 C19.68 11.33 18.36 11.66 17 12 C17 12.99 17 13.98 17 15 C17.66 15.33 18.32 15.66 19 16 C17.68 16 16.36 16 15 16 C14.34 14.35 13.68 12.7 13 11 C11.35 11.66 9.7 12.32 8 13 C8 14.65 8 16.3 8 18 C4.28400809 18.20086443 3.22791555 18.1519437 0 16 C-0.22107787 13.2114711 -0.28107535 10.65346819 -0.1875 7.875 C-0.17396484 7.12089844 -0.16042969 6.36679688 -0.14648438 5.58984375 C-0.11109985 3.72625873 -0.05729167 1.86304022 0 0 Z " fill="#474747" transform="translate(59,81)"/>
<path d="M0 0 C2.02045442 0.60183749 4.02111039 1.27306096 6 2 C6.33 2.66 6.66 3.32 7 4 C5.02 4.66 3.04 5.32 1 6 C1.28875 6.5775 1.5775 7.155 1.875 7.75 C3.4375 10.875 3.4375 10.875 5 14 C6.65 13.67 8.3 13.34 10 13 C7.68143083 11.45428722 5.49361571 10.20381448 3 9 C3 8.34 3 7.68 3 7 C3.99 7 4.98 7 6 7 C6 7.66 6 8.32 6 9 C6.99 9 7.98 9 9 9 C9 8.01 9 7.02 9 6 C10.32 6.66 11.64 7.32 13 8 C13 8.66 13 9.32 13 10 C13.66 10 14.32 10 15 10 C16.01911045 13.89114901 16.16782969 15.60596507 14.5625 19.375 C14.046875 20.24125 13.53125 21.1075 13 22 C11.68 21.34 10.36 20.68 9 20 C9 19.34 9 18.68 9 18 C6.69 17.67 4.38 17.34 2 17 C1.67 15.02 1.34 13.04 1 11 C0.443125 11.350625 -0.11375 11.70125 -0.6875 12.0625 C-3.53886783 13.21845993 -5.08517222 12.80967438 -8 12 C-8.33 10.68 -8.66 9.36 -9 8 C-6 7 -6 7 -4 7 C-3.525625 6.030625 -3.05125 5.06125 -2.5625 4.0625 C-1 1 -1 1 0 0 Z " fill="#504742" transform="translate(36,59)"/>
<path d="M0 0 C2.94650486 2.43406923 3.33883349 4.316358 4 8 C4.66 8.66 5.32 9.32 6 10 C5.34 11.65 4.68 13.3 4 15 C3.67 15 3.34 15 3 15 C3 13.02 3 11.04 3 9 C0.69 9.33 -1.62 9.66 -4 10 C-3.6596875 11.1446875 -3.6596875 11.1446875 -3.3125 12.3125 C-3 15 -3 15 -4.0625 16.6875 C-6.56803817 18.38480005 -9.10571935 19.16387448 -12 20 C-12.33 19.34 -12.66 18.68 -13 18 C-14.97888961 17.27306096 -16.97954558 16.60183749 -19 16 C-18.25 14.0625 -18.25 14.0625 -17 12 C-14.921875 11.37109375 -14.921875 11.37109375 -13 11 C-14.12277344 10.96261719 -15.24554688 10.92523438 -16.40234375 10.88671875 C-24.42636048 10.55630226 -31.49726287 10.13750826 -39 7 C-34.66394218 5.70413884 -30.78313572 6.39695762 -26.375 7 C-15.46840417 8.5651405 -15.46840417 8.5651405 -5 6 C-3.00039988 5.960008 -0.99952758 5.95653201 1 6 C0.505 3.03 0.505 3.03 0 0 Z " fill="#D0C9C5" transform="translate(59,31)"/>
<path d="M0 0 C4.24904174 -0.42490417 6.48718985 -0.29872436 10.21875 1.875 C12.23013007 3.65429776 12.92346989 4.6354504 13.47998047 7.28637695 C13.59095289 9.98525685 13.52366132 12.61563111 13.375 15.3125 C13.34792969 16.24384766 13.32085937 17.17519531 13.29296875 18.13476562 C13.2224825 20.42556872 13.12404246 22.71157563 13 25 C6.2421875 25.1875 6.2421875 25.1875 4.0625 23.5 C3.711875 23.005 3.36125 22.51 3 22 C3.99 21.67 4.98 21.34 6 21 C6.33 21.99 6.66 22.98 7 24 C7.87867729 20.26562152 8.08912219 16.83225427 8 13 C7.4225 12.773125 6.845 12.54625 6.25 12.3125 C3.30928102 10.5970806 1.82724314 8.87138207 0 6 C-0.25 2.6875 -0.25 2.6875 0 0 Z " fill="#DEA064" transform="translate(71,43)"/>
<path d="M0 0 C3.3 0.66 6.6 1.32 10 2 C10.33 2.99 10.66 3.98 11 5 C13.72357379 7.30967334 13.72357379 7.30967334 16.25 6.625 C17.1575 6.41875 18.065 6.2125 19 6 C21.33301986 5.96175377 23.66711508 5.95425716 26 6 C26 6.33 26 6.66 26 7 C12.87755127 11.57759839 0.29139897 9.48424247 -13 7 C-13 5.02 -13 3.04 -13 1 C-8.71 1 -4.42 1 0 1 C0 0.67 0 0.34 0 0 Z " fill="#E6E5E4" transform="translate(33,30)"/>
<path d="M0 0 C2.64 0 5.28 0 8 0 C8.66 1.65 9.32 3.3 10 5 C22.24495434 5.94304696 22.24495434 5.94304696 33 1 C35.04119788 2.61594832 37.04072937 4.2856382 39 6 C39 6.66 39 7.32 39 8 C32.21064698 11.26894775 28.1606304 10.91573146 21 9 C19.33541868 8.65640441 17.66923787 8.32020904 16 8 C16 8.33 16 8.66 16 9 C9.07 8.505 9.07 8.505 2 8 C2 9.65 2 11.3 2 13 C1.67 13 1.34 13 1 13 C1 11.02 1 9.04 1 7 C2.98 7 4.96 7 7 7 C6.27731765 3.7014861 6.27731765 3.7014861 2.9375 2.3125 C1.968125 1.879375 0.99875 1.44625 0 1 C0 0.67 0 0.34 0 0 Z " fill="#C1B2A4" transform="translate(18,23)"/>
<path d="M0 0 C6.0509304 1.16554807 12.03466226 2.45343096 18 4 C18 4.99 18 5.98 18 7 C21.72614153 5.88145414 21.72614153 5.88145414 24 3 C24.99 3 25.98 3 27 3 C27.28875 3.639375 27.5775 4.27875 27.875 4.9375 C28.82823451 7.15206079 28.82823451 7.15206079 31 8 C31 8.66 31 9.32 31 10 C26.45699761 12.72580143 22.89047526 11.63313152 18.01171875 10.5078125 C17.34785156 10.34023438 16.68398438 10.17265625 16 10 C16 9.34 16 8.68 16 8 C14.845 7.87625 13.69 7.7525 12.5 7.625 C8.21649625 7.09721115 4.16647328 6.11601963 0 5 C0 3.35 0 1.7 0 0 Z " fill="#F8F7F6" transform="translate(19,15)"/>
<path d="M0 0 C1.32 0.33 2.64 0.66 4 1 C3.319375 1.7425 2.63875 2.485 1.9375 3.25 C-0.24741569 5.74722741 -0.24741569 5.74722741 0.125 8.25 C0.875 10.1875 0.875 10.1875 3 11 C3 11.66 3 12.32 3 13 C5.64 13 8.28 13 11 13 C11 14.32 11 15.64 11 17 C10.01 17 9.02 17 8 17 C8 16.34 8 15.68 8 15 C6.01432292 15.29296875 4.02864583 15.5859375 2.04296875 15.87890625 C0 16 0 16 -3 15 C-3 15.99 -3 16.98 -3 18 C-6.63 17.67 -10.26 17.34 -14 17 C-12 12 -12 12 -10 10 C-9.236875 9.79375 -8.47375 9.5875 -7.6875 9.375 C-3.66491977 7.3169357 -2.11979399 3.87877198 0 0 Z " fill="#FCD1A2" transform="translate(22,0)"/>
<path d="M0 0 C6.72932607 -0.70211126 11.05399941 1.6127298 16.875 4.8125 C17.74125 5.26431641 18.6075 5.71613281 19.5 6.18164062 C25.86645671 9.59937013 25.86645671 9.59937013 27 13 C24.12063188 14.43968406 22.20992381 14.302823 19 14 C17.26031556 13.0979414 15.52153648 12.1848478 13.86328125 11.140625 C11.89977598 9.93864693 9.89712712 8.97463086 7.8125 8 C4.62785847 6.42932243 2.25214844 4.81518554 0 2 C0 1.34 0 0.68 0 0 Z " fill="#F7F6F6" transform="translate(9,64)"/>
<path d="M0 0 C0.33 2.31 0.66 4.62 1 7 C-2.96 7 -6.92 7 -11 7 C-11 9.31 -11 11.62 -11 14 C-12.98 14 -14.96 14 -17 14 C-17.33 12.35 -17.66 10.7 -18 9 C-18.99 8.67 -19.98 8.34 -21 8 C-21 7.01 -21 6.02 -21 5 C-19.125 5.25 -19.125 5.25 -17 6 C-15.875 8 -15.875 8 -15 10 C-14.34 10.33 -13.68 10.66 -13 11 C-13.495 10.21625 -13.99 9.4325 -14.5 8.625 C-16 6 -16 6 -16 4 C-18.475 3.01 -18.475 3.01 -21 2 C-21 2.66 -21 3.32 -21 4 C-25.75 3.25 -25.75 3.25 -28 1 C-22.39 1 -16.78 1 -11 1 C-11 2.65 -11 4.3 -11 6 C-8.36 5.67 -5.72 5.34 -3 5 C-5.475 4.505 -5.475 4.505 -8 4 C-8 3.01 -8 2.02 -8 1 C-5.07175348 0.02391783 -3.04386724 -0.08226668 0 0 Z " fill="#787878" transform="translate(55,95)"/>
<path d="M0 0 C0.58007812 0.20496094 1.16015625 0.40992187 1.7578125 0.62109375 C6.1621984 2.14009813 10.35677777 3.4047151 15 4 C15 3.34 15 2.68 15 2 C18.76624671 0.74458443 20.37188934 1.62938042 24 3 C23.67 5.97 23.34 8.94 23 12 C22.32453125 11.9278125 21.6490625 11.855625 20.953125 11.78125 C20.06109375 11.6884375 19.1690625 11.595625 18.25 11.5 C17.36828125 11.4071875 16.4865625 11.314375 15.578125 11.21875 C12.76695165 10.94363687 12.76695165 10.94363687 9 11 C9 10.01 9 9.02 9 8 C6.03 6.35 3.06 4.7 0 3 C0 2.01 0 1.02 0 0 Z " fill="#060606" transform="translate(23,84)"/>
<path d="M0 0 C0.55300781 0.23203125 1.10601562 0.4640625 1.67578125 0.703125 C-1.10183998 4.30374511 -4.06413232 7.53359653 -7.32421875 10.703125 C-3.36421875 11.033125 0.59578125 11.363125 4.67578125 11.703125 C4.18347356 18.103125 4.18347356 18.103125 1.61328125 21.140625 C0.97390625 21.65625 0.33453125 22.171875 -0.32421875 22.703125 C-0.40671875 21.919375 -0.48921875 21.135625 -0.57421875 20.328125 C-1.03417143 17.58681161 -1.03417143 17.58681161 -3.19921875 16.578125 C-4.25109375 16.145 -4.25109375 16.145 -5.32421875 15.703125 C-6.32421875 14.703125 -7.32421875 13.703125 -8.32421875 12.703125 C-9.97027701 11.66955353 -11.63385317 10.66252168 -13.32421875 9.703125 C-12.08358795 5.98123261 -10.67594475 5.19541692 -7.51171875 2.953125 C-6.63902344 2.31890625 -5.76632813 1.6846875 -4.8671875 1.03125 C-2.32421875 -0.296875 -2.32421875 -0.296875 0 0 Z " fill="#F2C49F" transform="translate(30.32421875,45.296875)"/>
<path d="M0 0 C0.33 0 0.66 0 1 0 C1 3.3 1 6.6 1 10 C3.33075929 9.04134491 3.33075929 9.04134491 5 6 C5.66 6.66 6.32 7.32 7 8 C7 7.34 7 6.68 7 6 C8.32 6 9.64 6 11 6 C11.33 5.01 11.66 4.02 12 3 C12.99 3.33 13.98 3.66 15 4 C15.6875 6.0625 15.6875 6.0625 16 8 C16.66 8 17.32 8 18 8 C17.6875 10.875 17.6875 10.875 17 14 C14 16 14 16 10.6875 15.8125 C6.83145851 14.96286374 2.8759257 13.8759257 0 11 C-0.07226502 9.14712498 -0.0838122 7.29166122 -0.0625 5.4375 C-0.05347656 4.42558594 -0.04445312 3.41367187 -0.03515625 2.37109375 C-0.02355469 1.58863281 -0.01195312 0.80617188 0 0 Z " fill="#A1978F" transform="translate(0,21)"/>
<path d="M0 0 C6.27 0 12.54 0 19 0 C17.02 2.97 17.02 2.97 15 6 C15.99 6.33 16.98 6.66 18 7 C15.63055987 9.61885488 13.16266898 11.41866551 10 13 C9.01 12.67 8.02 12.34 7 12 C7.66 10.35 8.32 8.7 9 7 C8.34 7 7.68 7 7 7 C7 6.34 7 5.68 7 5 C5.02 5 3.04 5 1 5 C0.67 3.35 0.34 1.7 0 0 Z " fill="#D8D2CB" transform="translate(44,0)"/>
<path d="M0 0 C0.99 0 1.98 0 3 0 C3 4.62 3 9.24 3 14 C0.69 14 -1.62 14 -4 14 C-4.66 13.34 -5.32 12.68 -6 12 C-9.59679066 12.32326553 -9.59679066 12.32326553 -13 13 C-13.33 13.99 -13.66 14.98 -14 16 C-16.70879335 17.35439668 -19.00933268 17.06501451 -22 17 C-21.67 16.34 -21.34 15.68 -21 15 C-20.38125 14.855625 -19.7625 14.71125 -19.125 14.5625 C-16.94073419 14.17663412 -16.94073419 14.17663412 -15.6171875 12.6015625 C-13.85325128 10.85466915 -12.21925199 9.90951661 -10 8.8125 C-9.319375 8.46832031 -8.63875 8.12414063 -7.9375 7.76953125 C-6 7 -6 7 -3 7 C-3 6.34 -3 5.68 -3 5 C-2.34 5 -1.68 5 -1 5 C-0.67 3.35 -0.34 1.7 0 0 Z " fill="#996A42" transform="translate(81,4)"/>
<path d="M0 0 C0.33 1.65 0.66 3.3 1 5 C2.98 5 4.96 5 7 5 C7 5.66 7 6.32 7 7 C7.66 7 8.32 7 9 7 C8.34 8.32 7.68 9.64 7 11 C1.06 11 -4.88 11 -11 11 C-9.45686187 7.91372373 -8.2228297 5.82260636 -6.0625 3.25 C-5.55847656 2.63640625 -5.05445313 2.0228125 -4.53515625 1.390625 C-3 0 -3 0 0 0 Z " fill="#4A4646" transform="translate(44,0)"/>
<path d="M0 0 C3.96 0 7.92 0 12 0 C11.34 1.32 10.68 2.64 10 4 C11.98 4.99 13.96 5.98 16 7 C16 7.66 16 8.32 16 9 C16.433125 8.34 16.86625 7.68 17.3125 7 C21.46130683 3.91251585 25.98330637 4.34131961 31 5 C32.485 5.99 32.485 5.99 34 7 C33.14535156 7.19335938 32.29070313 7.38671875 31.41015625 7.5859375 C29.75306641 7.97652344 29.75306641 7.97652344 28.0625 8.375 C26.96035156 8.63023438 25.85820313 8.88546875 24.72265625 9.1484375 C23.37494141 9.56996094 23.37494141 9.56996094 22 10 C21.67 10.66 21.34 11.32 21 12 C18.68682039 11.69257097 16.37446648 11.37892298 14.0625 11.0625 C12.13083984 10.80146484 12.13083984 10.80146484 10.16015625 10.53515625 C7 10 7 10 6 9 C5.95919217 7.00041636 5.95745644 4.99954746 6 3 C6.66 2.67 7.32 2.34 8 2 C5.36 1.67 2.72 1.34 0 1 C0 0.67 0 0.34 0 0 Z " fill="#B57440" transform="translate(31,42)"/>
<path d="M0 0 C0 0.66 0 1.32 0 2 C0.73605469 2.13277344 1.47210938 2.26554687 2.23046875 2.40234375 C3.20628906 2.57894531 4.18210937 2.75554688 5.1875 2.9375 C6.15042969 3.11152344 7.11335938 3.28554688 8.10546875 3.46484375 C10.74239972 3.9523735 13.3719905 4.46671105 16 5 C16 5.66 16 6.32 16 7 C16.71027344 7.04898437 17.42054687 7.09796875 18.15234375 7.1484375 C19.07144531 7.22320313 19.99054687 7.29796875 20.9375 7.375 C22.31228516 7.47941406 22.31228516 7.47941406 23.71484375 7.5859375 C24.84599609 7.79089844 24.84599609 7.79089844 26 8 C26.33 8.66 26.66 9.32 27 10 C22.2760062 12.3619969 13.88189016 11.5866143 9 10 C7.625 7.4375 7.625 7.4375 7 5 C4.36 5 1.72 5 -1 5 C-1 4.01 -1 3.02 -1 2 C-1.66 2 -2.32 2 -3 2 C-2.89386164 4.45224694 -2.89386164 4.45224694 -2 7 C0.47636012 8.37466625 0.47636012 8.37466625 3 9 C3 9.33 3 9.66 3 10 C1.02 10 -0.96 10 -3 10 C-4.57035335 7.50590939 -5.0274945 6.29556584 -4.75 3.3125 C-4.5025 2.549375 -4.255 1.78625 -4 1 C-2 0 -2 0 0 0 Z " fill="#DFDCD8" transform="translate(19,18)"/>
<path d="M0 0 C0.33 1.32 0.66 2.64 1 4 C0.34 4 -0.32 4 -1 4 C-1 4.66 -1 5.32 -1 6 C-2.78953185 6.83790789 -4.58169695 7.67019396 -6.375 8.5 C-7.37273437 8.9640625 -8.37046875 9.428125 -9.3984375 9.90625 C-12 11 -12 11 -14 11 C-14.33 11.99 -14.66 12.98 -15 14 C-17.0625 14.6875 -17.0625 14.6875 -19 15 C-16.69 15 -14.38 15 -12 15 C-12.33 15.66 -12.66 16.32 -13 17 C-17.62 17 -22.24 17 -27 17 C-27.33 15.35 -27.66 13.7 -28 12 C-27.33613281 11.95101563 -26.67226563 11.90203125 -25.98828125 11.8515625 C-19.2887764 11.28874188 -19.2887764 11.28874188 -13 9 C-13 8.01 -13 7.02 -13 6 C-9.49223216 4.39644899 -6.85645121 3.77963136 -3 4 C-3 3.34 -3 2.68 -3 2 C-2.01 2 -1.02 2 0 2 C0 1.34 0 0.68 0 0 Z " fill="#DE9A5A" transform="translate(79,5)"/>
<path d="M0 0 C0 5.94 0 11.88 0 18 C-1.98 18 -3.96 18 -6 18 C-6 17.34 -6 16.68 -6 16 C-6.66 16 -7.32 16 -8 16 C-8.33 14.68 -8.66 13.36 -9 12 C-7.35 12 -5.7 12 -4 12 C-4 11.34 -4 10.68 -4 10 C-6.31 9.34 -8.62 8.68 -11 8 C-8 6 -8 6 -6 6 C-6 5.34 -6 4.68 -6 4 C-6.66 3.67 -7.32 3.34 -8 3 C-3.375 0 -3.375 0 0 0 Z " fill="#4F4E4D" transform="translate(84,80)"/>
<path d="M0 0 C3.23238414 0.07696153 5.33227795 0.37438655 7.734375 2.625 C9.21851673 4.37770071 10.63844334 6.15079362 12 8 C11.67 8.66 11.34 9.32 11 10 C10.34 10 9.68 10 9 10 C8.67 10.99 8.34 11.98 8 13 C7.33613281 12.65066406 6.67226563 12.30132812 5.98828125 11.94140625 C5.10527344 11.48636719 4.22226562 11.03132813 3.3125 10.5625 C2.44238281 10.11003906 1.57226562 9.65757813 0.67578125 9.19140625 C-1.90998264 8.04008072 -4.21356528 7.43679247 -7 7 C-6.21625 6.401875 -5.4325 5.80375 -4.625 5.1875 C-1.85425677 3.08914751 -1.85425677 3.08914751 0 0 Z " fill="#C5875A" transform="translate(18,57)"/>
<path d="M0 0 C0.99 0.33 1.98 0.66 3 1 C3.33 3.97 3.66 6.94 4 10 C6.03994141 9.87431641 6.03994141 9.87431641 8.12109375 9.74609375 C9.8932132 9.64295452 11.66534953 9.54010485 13.4375 9.4375 C14.33533203 9.38142578 15.23316406 9.32535156 16.15820312 9.26757812 C17.01220703 9.21923828 17.86621094 9.17089844 18.74609375 9.12109375 C19.53685303 9.0739624 20.3276123 9.02683105 21.14233398 8.97827148 C23 9 23 9 24 10 C24.04063832 11.66617115 24.042721 13.33388095 24 15 C15.40131562 14.38580826 7.30515248 12.19092979 -1 10 C-1.103125 9.360625 -1.20625 8.72125 -1.3125 8.0625 C-1.539375 7.381875 -1.76625 6.70125 -2 6 C-2.99 5.67 -3.98 5.34 -5 5 C-4.34 5 -3.68 5 -3 5 C-3 4.01 -3 3.02 -3 2 C-2.01 2 -1.02 2 0 2 C0 1.34 0 0.68 0 0 Z " fill="#F7CC9E" transform="translate(48,12)"/>
<path d="M0 0 C0.99 0.33 1.98 0.66 3 1 C3 1.66 3 2.32 3 3 C4.65 2.67 6.3 2.34 8 2 C13 7.625 13 7.625 13 11 C8.05 11 3.1 11 -2 11 C-2.33 9.35 -2.66 7.7 -3 6 C-2.34 6 -1.68 6 -1 6 C-1 5.34 -1 4.68 -1 4 C-0.34 4 0.32 4 1 4 C0.67 2.68 0.34 1.36 0 0 Z " fill="#919191" transform="translate(25,98)"/>
<path d="M0 0 C0.33 0.33 0.66 0.66 1 1 C3.32817964 1.36760731 5.6618385 1.70241581 8 2 C7.6452187 4.57216446 7.1957002 5.79677287 5.375 7.6875 C2.29564007 9.38925154 -0.52523365 9.66588785 -4 10 C-4.33 8.68 -4.66 7.36 -5 6 C-6.32 5.67 -7.64 5.34 -9 5 C-8.75 3.125 -8.75 3.125 -8 1 C-5.10297749 -1.09784389 -3.31895448 -1.25891377 0 0 Z " fill="#EBE8E4" transform="translate(76,16)"/>
<path d="M0 0 C0.33 1.32 0.66 2.64 1 4 C0.34 4 -0.32 4 -1 4 C-1.33 4.66 -1.66 5.32 -2 6 C-1.01 6 -0.02 6 1 6 C0.67 6.66 0.34 7.32 0 8 C-6.27 7.67 -12.54 7.34 -19 7 C-19 5.35 -19 3.7 -19 2 C-12.73 1.34 -6.46 0.68 0 0 Z " fill="#4D3018" transform="translate(19,91)"/>
<path d="M0 0 C1.39456452 0.00667256 2.78911118 0.01863093 4.18359375 0.03515625 C4.89451172 0.03966797 5.60542969 0.04417969 6.33789062 0.04882812 C8.09899388 0.06064761 9.86005411 0.07858362 11.62109375 0.09765625 C11.62109375 0.75765625 11.62109375 1.41765625 11.62109375 2.09765625 C10.96109375 2.09765625 10.30109375 2.09765625 9.62109375 2.09765625 C9.62109375 3.74765625 9.62109375 5.39765625 9.62109375 7.09765625 C8.20570658 7.43638138 6.78871412 7.76840249 5.37109375 8.09765625 C4.5821875 8.28328125 3.79328125 8.46890625 2.98046875 8.66015625 C0.62109375 9.09765625 0.62109375 9.09765625 -3.37890625 9.09765625 C-4.2578125 2.9453125 -4.2578125 2.9453125 -4.37890625 1.09765625 C-3.37890625 0.09765625 -3.37890625 0.09765625 0 0 Z " fill="#F1EFEE" transform="translate(5.37890625,16.90234375)"/>
<path d="M0 0 C2.0728125 0.99 2.0728125 0.99 4.1875 2 C9.24221702 4.24213937 12.68631832 4.5744242 18 3 C18 4.65 18 6.3 18 8 C15.69 8.33 13.38 8.66 11 9 C11 8.34 11 7.68 11 7 C10.505 7.7425 10.505 7.7425 10 8.5 C6.82427253 10.88179561 3.89753934 10.19168226 0 10 C0 6.7 0 3.4 0 0 Z " fill="#EECCA4" transform="translate(0,32)"/>
<path d="M0 0 C4.29 0 8.58 0 13 0 C10.56803781 4.05327032 8.66063996 6.58572329 5.375 9.8125 C4.57835937 10.60269531 3.78171875 11.39289062 2.9609375 12.20703125 C1 14 1 14 0 14 C0 9.38 0 4.76 0 0 Z " fill="#B9B9B9" transform="translate(0,0)"/>
<path d="M0 0 C0.33 0 0.66 0 1 0 C1 1.65 1 3.3 1 5 C2.65 4.67 4.3 4.34 6 4 C6 4.66 6 5.32 6 6 C6.639375 5.835 7.27875 5.67 7.9375 5.5 C10.64111562 4.84457803 13.21338247 5 16 5 C16 6.32 16 7.64 16 9 C13.03 9.99 10.06 10.98 7 12 C7.33 10.68 7.66 9.36 8 8 C7.34 8 6.68 8 6 8 C6 9.65 6 11.3 6 13 C1.545 12.01 1.545 12.01 -3 11 C-3.33 11.66 -3.66 12.32 -4 13 C-4.33 12.01 -4.66 11.02 -5 10 C-5.66 10 -6.32 10 -7 10 C-7 9.34 -7 8.68 -7 8 C-5.02 8.66 -3.04 9.32 -1 10 C-0.67 9.34 -0.34 8.68 0 8 C0.99 8.33 1.98 8.66 3 9 C3 8.34 3 7.68 3 7 C2.01 7 1.02 7 0 7 C0 4.69 0 2.38 0 0 Z " fill="#948A83" transform="translate(56,59)"/>
<path d="M0 0 C0.33 0 0.66 0 1 0 C1 2.31 1 4.62 1 7 C2.65 7 4.3 7 6 7 C6.98120464 10.05263664 6.98120464 11.94736336 6 15 C4.68 15 3.36 15 2 15 C2 15.66 2 16.32 2 17 C2.99 17.33 3.98 17.66 5 18 C5 20.31 5 22.62 5 25 C3.0625 24.6875 3.0625 24.6875 1 24 C0.01956036 21.05868109 -0.11621202 19.17498335 -0.09765625 16.11328125 C-0.09443359 15.17548828 -0.09121094 14.23769531 -0.08789062 13.27148438 C-0.07532227 11.80678711 -0.07532227 11.80678711 -0.0625 10.3125 C-0.05798828 9.32443359 -0.05347656 8.33636719 -0.04882812 7.31835938 C-0.03704303 4.87884526 -0.02059011 2.43945311 0 0 Z " fill="#C6B6A9" transform="translate(0,59)"/>
<path d="M0 0 C0.6875 2.3125 0.6875 2.3125 1 5 C-1.08841846 8.3168999 -4.38006493 8.95424098 -8 10 C-8.33 9.34 -8.66 8.68 -9 8 C-10.97888961 7.27306096 -12.97954558 6.60183749 -15 6 C-14.5 4.125 -14.5 4.125 -13 2 C-8.83424498 0.296253 -4.48232342 -0.28014521 0 0 Z " fill="#F1C297" transform="translate(55,41)"/>
<path d="M0 0 C4.92947689 -0.10150789 9.56533119 0.25757428 14.4375 1 C16.29181641 1.2784375 16.29181641 1.2784375 18.18359375 1.5625 C19.11300781 1.706875 20.04242188 1.85125 21 2 C21 3.65 21 5.3 21 7 C16.68334329 8.25604376 14.11718265 7.65737417 9.9375 6.125 C5.03112102 4.35357016 5.03112102 4.35357016 0 3 C0 2.01 0 1.02 0 0 Z " fill="#9A6237" transform="translate(35,57)"/>
<path d="M0 0 C1.32 0.66 2.64 1.32 4 2 C4 2.66 4 3.32 4 4 C4.66 4 5.32 4 6 4 C7.01911045 7.89114901 7.16782969 9.60596507 5.5625 13.375 C5.046875 14.24125 4.53125 15.1075 4 16 C2.68 15.34 1.36 14.68 0 14 C0 13.34 0 12.68 0 12 C-1.32 11.67 -2.64 11.34 -4 11 C-3.34 11 -2.68 11 -2 11 C-1.67 10.34 -1.34 9.68 -1 9 C-0.01 8.67 0.98 8.34 2 8 C-0.40921705 5.59078295 -2.94334509 4.46187844 -6 3 C-6 2.34 -6 1.68 -6 1 C-5.01 1 -4.02 1 -3 1 C-3 1.66 -3 2.32 -3 3 C-2.01 3 -1.02 3 0 3 C0 2.01 0 1.02 0 0 Z " fill="#252425" transform="translate(45,65)"/>
<path d="M0 0 C7.26185946 -0.4271682 14.05296904 0.85488279 21 3 C21.66 3.66 22.32 4.32 23 5 C22.01 5 21.02 5 20 5 C20 5.66 20 6.32 20 7 C17.03 7 14.06 7 11 7 C11 6.01 11 5.02 11 4 C10.38511719 4.01160156 9.77023438 4.02320313 9.13671875 4.03515625 C8.32847656 4.04417969 7.52023438 4.05320312 6.6875 4.0625 C5.48673828 4.07990234 5.48673828 4.07990234 4.26171875 4.09765625 C2 4 2 4 -1 3 C-0.67 2.01 -0.34 1.02 0 0 Z " fill="#EFD5B1" transform="translate(46,54)"/>
<path d="M0 0 C4 4.75 4 4.75 4 7 C1.69 7 -0.62 7 -3 7 C-3 7.66 -3 8.32 -3 9 C-4.45880109 8.85892253 -5.91703551 8.71197585 -7.375 8.5625 C-8.59316406 8.44068359 -8.59316406 8.44068359 -9.8359375 8.31640625 C-12 8 -12 8 -14 7 C-13.67 6.01 -13.34 5.02 -13 4 C-10.3125 3.0859375 -10.3125 3.0859375 -7 2.375 C-3.18924698 1.82052907 -3.18924698 1.82052907 0 0 Z " fill="#0F0A07" transform="translate(66,47)"/>
<path d="M0 0 C2.04119788 1.61594832 4.04072937 3.2856382 6 5 C6 5.66 6 6.32 6 7 C0.04267297 9.86834264 -3.55427959 10.18400137 -9.99609375 8.73828125 C-12 8 -12 8 -13 6 C-10.36 6 -7.72 6 -5 6 C-5 5.01 -5 4.02 -5 3 C-2.5 1.3125 -2.5 1.3125 0 0 Z " fill="#DAA676" transform="translate(51,24)"/>
<path d="M0 0 C1.23556641 0.01740234 1.23556641 0.01740234 2.49609375 0.03515625 C3.32238281 0.04417969 4.14867187 0.05320313 5 0.0625 C5.63808594 0.07410156 6.27617187 0.08570313 6.93359375 0.09765625 C5.55220025 4.12672063 4.08660319 7.187186 0.93359375 10.09765625 C-2.06320104 10.80674241 -4.99294218 11.02541671 -8.06640625 11.09765625 C-7.25390625 9.16015625 -7.25390625 9.16015625 -6.06640625 7.09765625 C-5.07640625 6.76765625 -4.08640625 6.43765625 -3.06640625 6.09765625 C-3.08703125 5.29328125 -3.10765625 4.48890625 -3.12890625 3.66015625 C-3.04314185 0.14381578 -3.04314185 0.14381578 0 0 Z " fill="#F1F1F1" transform="translate(15.06640625,-0.09765625)"/>
<path d="M0 0 C3.465 1.485 3.465 1.485 7 3 C6.67 4.32 6.34 5.64 6 7 C6.99 7 7.98 7 9 7 C9.33 6.34 9.66 5.68 10 5 C10 5.66 10 6.32 10 7 C10.928125 6.814375 11.85625 6.62875 12.8125 6.4375 C16 6 16 6 19 7 C19.66 6.34 20.32 5.68 21 5 C21 6.98 21 8.96 21 11 C22.65 11 24.3 11 26 11 C26.33 11.66 26.66 12.32 27 13 C24.03 13 21.06 13 18 13 C18 11.35 18 9.7 18 8 C16.55367187 8.14308594 16.55367187 8.14308594 15.078125 8.2890625 C13.81484375 8.39992188 12.5515625 8.51078125 11.25 8.625 C9.99703125 8.74101563 8.7440625 8.85703125 7.453125 8.9765625 C4.16376617 8.99888846 2.61324235 8.92958237 0 7 C-0.93580311 4.12060581 -1.37245106 2.74490212 0 0 Z " fill="#313131" transform="translate(26,88)"/>
<path d="M0 0 C1.41623216 -0.05447047 2.83308191 -0.09300508 4.25 -0.125 C5.03890625 -0.14820313 5.8278125 -0.17140625 6.640625 -0.1953125 C9.22630204 0.01873361 10.71220406 0.83979391 13 2 C16.47486472 1.74176007 16.47486472 1.74176007 20 1 C20.969375 0.814375 21.93875 0.62875 22.9375 0.4375 C23.618125 0.293125 24.29875 0.14875 25 0 C23.68 1.32 22.36 2.64 21 4 C24.96 4.33 28.92 4.66 33 5 C33 5.33 33 5.66 33 6 C31.25008666 6.02715383 29.50005055 6.04646551 27.75 6.0625 C26.28820313 6.07990234 26.28820313 6.07990234 24.796875 6.09765625 C22 6 22 6 20.07763672 5.51147461 C17.99092371 4.99776559 16.10461533 4.81445445 13.9609375 4.71875 C13.21585938 4.68136719 12.47078125 4.64398438 11.703125 4.60546875 C10.14324513 4.53480305 8.58334906 4.46449406 7.0234375 4.39453125 C1.20297418 4.10148709 1.20297418 4.10148709 -1 3 C-0.67 2.01 -0.34 1.02 0 0 Z " fill="#E9B07A" transform="translate(24,53)"/>
<path d="M0 0 C6.27 0 12.54 0 19 0 C19 1.32 19 2.64 19 4 C17.58456585 4.19658808 16.16755969 4.38187546 14.75 4.5625 C13.96109375 4.66691406 13.1721875 4.77132813 12.359375 4.87890625 C9.99467126 5.00027349 8.2488963 4.69633257 6 4 C5.67 4.66 5.34 5.32 5 6 C3.68 5.67 2.36 5.34 1 5 C1.66 5 2.32 5 3 5 C3 4.34 3 3.68 3 3 C2.01 3 1.02 3 0 3 C0 2.01 0 1.02 0 0 Z " fill="#D3C1B1" transform="translate(65,0)"/>
<path d="M0 0 C0.99 0 1.98 0 3 0 C3.33 1.65 3.66 3.3 4 5 C4.57234375 4.79503906 5.1446875 4.59007812 5.734375 4.37890625 C8.59910136 3.89980546 9.73474736 4.55411105 12.25 5.9375 C12.95640625 6.31777344 13.6628125 6.69804688 14.390625 7.08984375 C14.92171875 7.39019531 15.4528125 7.69054688 16 8 C16 9.32 16 10.64 16 12 C13.36713856 11.49368049 11.56297226 10.75720681 9.1875 9.4375 C5.54578161 7.79515641 2.95025547 7.76298467 -1 8 C-1.04241723 5.66705225 -1.04092937 3.33297433 -1 1 C-0.67 0.67 -0.34 0.34 0 0 Z " fill="#AC6333" transform="translate(68,31)"/>
<path d="M0 0 C0 -0.66 0 -1.32 0 -2 C1.65 -2 3.3 -2 5 -2 C5 -1.01 5 -0.02 5 1 C-3.91 1 -12.82 1 -22 1 C-21 -1 -21 -1 -18.4375 -2.125 C-11.22387761 -3.96119479 -6.49590481 -3.24795241 0 0 Z " fill="#D1D1D1" transform="translate(79,108)"/>
<path d="M0 0 C4 0 4 0 6.3125 1.8125 C8.8359453 6.57900778 7.83683596 10.80615944 7 16 C6.67 16 6.34 16 6 16 C6 14.02 6 12.04 6 10 C4.35 10 2.7 10 1 10 C1 9.01 1 8.02 1 7 C0.34 7 -0.32 7 -1 7 C-1 6.34 -1 5.68 -1 5 C-1.99 4.67 -2.98 4.34 -4 4 C-2.68 3.34 -1.36 2.68 0 2 C0 1.34 0 0.68 0 0 Z " fill="#8F8A88" transform="translate(41,77)"/>
<path d="M0 0 C0.99 0.495 0.99 0.495 2 1 C2 1.66 2 2.32 2 3 C2.69996094 3.27070312 3.39992188 3.54140625 4.12109375 3.8203125 C7.16266238 5.06665406 10.10846247 6.43345956 13.0625 7.875 C14.08472656 8.36742188 15.10695313 8.85984375 16.16015625 9.3671875 C18.94547351 10.96864914 20.85749514 12.62628958 23 15 C7.09467132 11.21594695 7.09467132 11.21594695 1 7 C-0.1875 3.1875 -0.1875 3.1875 0 0 Z " fill="#DBDBDB" transform="translate(8,65)"/>
<path d="M0 0 C-0.9977758 2.99332739 -1.7522025 3.94766315 -4 6 C-2.68 7.32 -1.36 8.64 0 10 C-3.3 10.33 -6.6 10.66 -10 11 C-10 7.7 -10 4.4 -10 1 C-2.25 0 -2.25 0 0 0 Z " fill="#312015" transform="translate(10,41)"/>
<path d="M0 0 C6.76594019 -0.11381955 13.28837062 0.11978631 20 1 C19.67 1.66 19.34 2.32 19 3 C18.34 3 17.68 3 17 3 C17 4.98 17 6.96 17 9 C16.01 9 15.02 9 14 9 C14 7.02 14 5.04 14 3 C10.89625829 2.74135486 9.47234514 2.64216278 6.9375 4.5625 C5 6 5 6 2.75 5.6875 C2.1725 5.460625 1.595 5.23375 1 5 C0.67 3.35 0.34 1.7 0 0 Z " fill="#3A2F26" transform="translate(20,42)"/>
<path d="M0 0 C0.33 1.65 0.66 3.3 1 5 C-0.8253125 4.9690625 -0.8253125 4.9690625 -2.6875 4.9375 C-5.33693952 4.90951296 -7.12069773 5.03649001 -9.6875 5.8125 C-10.450625 5.874375 -11.21375 5.93625 -12 6 C-14.8125 3.5625 -14.8125 3.5625 -17 1 C-15.948125 1.04125 -14.89625 1.0825 -13.8125 1.125 C-10.11758781 1.22306541 -10.11758781 1.22306541 -7.375 -0.0625 C-4.49809981 -1.1981185 -2.92671993 -0.83620569 0 0 Z " fill="#F6F5F3" transform="translate(59,32)"/>
<path d="M0 0 C0 0.99 0 1.98 0 3 C-5.73230171 5.85288164 -10.59859065 7.53444296 -17 8 C-17.33 7.01 -17.66 6.02 -18 5 C-19.65 4.67 -21.3 4.34 -23 4 C-23.33 4.99 -23.66 5.98 -24 7 C-23.67 5.35 -23.34 3.7 -23 2 C-21.35 1.67 -19.7 1.34 -18 1 C-17.67 1.66 -17.34 2.32 -17 3 C-10.50730878 3.34039352 -5.48226378 0 0 0 Z " fill="#D09156" transform="translate(84,73)"/>
<path d="M0 0 C0.33 0.66 0.66 1.32 1 2 C0.01 2 -0.98 2 -2 2 C-1.67 3.32 -1.34 4.64 -1 6 C-2.32 6.33 -3.64 6.66 -5 7 C-5 7.66 -5 8.32 -5 9 C-5.99 9 -6.98 9 -8 9 C-7.67 7.35 -7.34 5.7 -7 4 C-10.96 4 -14.92 4 -19 4 C-19 4.99 -19 5.98 -19 7 C-19.66 7 -20.32 7 -21 7 C-21 5.02 -21 3.04 -21 1 C-19.10314453 1.01740234 -19.10314453 1.01740234 -17.16796875 1.03515625 C-15.50781398 1.04453566 -13.84765761 1.0536357 -12.1875 1.0625 C-11.35412109 1.07087891 -10.52074219 1.07925781 -9.66210938 1.08789062 C-8.45844727 1.09272461 -8.45844727 1.09272461 -7.23046875 1.09765625 C-6.49207764 1.10289307 -5.75368652 1.10812988 -4.99291992 1.11352539 C-2.78942591 1.07523213 -2.78942591 1.07523213 0 0 Z " fill="#646464" transform="translate(21,99)"/>
<path d="M0 0 C1.32 0.33 2.64 0.66 4 1 C4 1.66 4 2.32 4 3 C6.97 3.99 9.94 4.98 13 6 C8.25 9.875 8.25 9.875 6 11 C4.32345271 10.72057545 2.65391846 10.39171753 1 10 C0.67 6.7 0.34 3.4 0 0 Z " fill="#7E4A29" transform="translate(0,56)"/>
<path d="M0 0 C1.65 0.33 3.3 0.66 5 1 C4.5078125 2.953125 4.5078125 2.953125 3 5 C0.17482275 5.46588547 -2.29079561 5.69615501 -5.125 5.75 C-6.25615234 5.79447266 -6.25615234 5.79447266 -7.41015625 5.83984375 C-9.27285953 5.91057932 -11.13643755 5.95754983 -13 6 C-13 4.35 -13 2.7 -13 1 C-8.71 1 -4.42 1 0 1 C0 0.67 0 0.34 0 0 Z " fill="#F4F3F2" transform="translate(33,30)"/>
<path d="M0 0 C0.33 0 0.66 0 1 0 C1.103125 1.03125 1.20625 2.0625 1.3125 3.125 C2.12466342 6.16906289 2.9417583 6.9593806 5.58203125 8.80078125 C8.35401569 10.29174592 11.13704135 11.69299714 14 13 C14 13.33 14 13.66 14 14 C8.06 14.495 8.06 14.495 2 15 C2.33 13.35 2.66 11.7 3 10 C0.36 9.01 -2.28 8.02 -5 7 C-5 6.34 -5 5.68 -5 5 C-3.68 5 -2.36 5 -1 5 C-0.67 3.35 -0.34 1.7 0 0 Z " fill="#26201E" transform="translate(7,69)"/>
<path d="M0 0 C2.31 0.33 4.62 0.66 7 1 C8.125 6.75 8.125 6.75 7 9 C8.65 8.34 10.3 7.68 12 7 C11.34 8.32 10.68 9.64 10 11 C8.68 11 7.36 11 6 11 C6 10.01 6 9.02 6 8 C0.06 7.01 0.06 7.01 -6 6 C-6 5.34 -6 4.68 -6 4 C-4.35 4 -2.7 4 -1 4 C-1 4.66 -1 5.32 -1 6 C-0.01 6 0.98 6 2 6 C2 4.68 2 3.36 2 2 C1.34 2 0.68 2 0 2 C0 1.34 0 0.68 0 0 Z " fill="#F2CDA5" transform="translate(31,11)"/>
<path d="M0 0 C0.66 0 1.32 0 2 0 C2.2475 0.78375 2.495 1.5675 2.75 2.375 C4.20677422 5.43422586 4.96273506 5.74936149 8 7 C9.35113205 7.97581759 10.68946944 8.97029741 12 10 C10.06860205 11.93139795 6.60390519 11.64084066 4 12 C3.01 12.33 2.02 12.66 1 13 C-1.1875 12.0625 -1.1875 12.0625 -3 11 C-3 10.34 -3 9.68 -3 9 C-0.69 9 1.62 9 4 9 C3.34 7.88625 2.68 6.7725 2 5.625 C0 2.25 0 2.25 0 0 Z " fill="#75461F" transform="translate(66,45)"/>
<path d="M0 0 C0.66 1.65 1.32 3.3 2 5 C2.66 5 3.32 5 4 5 C4 5.99 4 6.98 4 8 C1.09399739 9.25664978 -0.79604584 10 -4 10 C-4 9.34 -4 8.68 -4 8 C-5.32 7.67 -6.64 7.34 -8 7 C-4.13157895 0 -4.13157895 0 0 0 Z " fill="#7A7A7A" transform="translate(72,92)"/>
<path d="M0 0 C1.32 0.33 2.64 0.66 4 1 C3.6875 3.875 3.6875 3.875 3 7 C0 9 0 9 -3.4375 8.875 C-7.24729086 7.9392619 -8.57972468 7.0011414 -11 4 C-6.15507803 2.48596188 -2.7408989 3.63397828 2 5 C1.34 3.35 0.68 1.7 0 0 Z " fill="#201914" transform="translate(14,28)"/>
<path d="M0 0 C0.55300781 0.23203125 1.10601562 0.4640625 1.67578125 0.703125 C-1.24716119 4.79524442 -4.69320806 8.57042271 -9.32421875 10.703125 C-11.54296875 10.3359375 -11.54296875 10.3359375 -13.32421875 9.703125 C-12.08358795 5.98123261 -10.67594475 5.19541692 -7.51171875 2.953125 C-6.63902344 2.31890625 -5.76632813 1.6846875 -4.8671875 1.03125 C-2.32421875 -0.296875 -2.32421875 -0.296875 0 0 Z " fill="#F1F0EF" transform="translate(30.32421875,45.296875)"/>
<path d="M0 0 C3 1 3 1 4.1875 3.0625 C4.455625 3.701875 4.72375 4.34125 5 5 C4.360625 5.12375 3.72125 5.2475 3.0625 5.375 C2.0415625 5.684375 2.0415625 5.684375 1 6 C0.67 6.66 0.34 7.32 0 8 C2.64 8 5.28 8 8 8 C8 8.99 8 9.98 8 11 C4.7 11 1.4 11 -2 11 C-2.33 9.35 -2.66 7.7 -3 6 C-2.34 6 -1.68 6 -1 6 C-1 5.34 -1 4.68 -1 4 C-0.34 4 0.32 4 1 4 C0.67 2.68 0.34 1.36 0 0 Z " fill="#BDBDBD" transform="translate(25,98)"/>
<path d="M0 0 C1.22074219 0.13277344 2.44148438 0.26554687 3.69921875 0.40234375 C13.12562476 1.41721478 22.5399428 2.3546101 32 3 C27.51096341 5.5731923 23.84309047 5.12033629 18.8125 4.8125 C17.99974609 4.78091797 17.18699219 4.74933594 16.34960938 4.71679688 C10.50079339 4.39574015 5.45607841 3.10909301 0 1 C0 0.67 0 0.34 0 0 Z " fill="#CCBBB0" transform="translate(20,37)"/>
<path d="M0 0 C2.31 0 4.62 0 7 0 C7.33 2.31 7.66 4.62 8 7 C5.36 7 2.72 7 0 7 C0 4.69 0 2.38 0 0 Z " fill="#909090" transform="translate(44,102)"/>
<path d="M0 0 C0.97066406 -0.01417969 1.94132813 -0.02835937 2.94140625 -0.04296875 C5.4375 0.1875 5.4375 0.1875 7.4375 2.1875 C4.69820623 4.92679377 -2.52780365 4.1632256 -6.2265625 4.25 C-8.33864442 4.25 -10.45069275 4.22156141 -12.5625 4.1875 C-8.36594933 0.85920119 -5.32778063 0.03547124 0 0 Z " fill="#D29356" transform="translate(12.5625,88.8125)"/>
<path d="M0 0 C1.2065625 0.0309375 1.2065625 0.0309375 2.4375 0.0625 C2.4375 0.7225 2.4375 1.3825 2.4375 2.0625 C1.4475 2.0625 0.4575 2.0625 -0.5625 2.0625 C-0.5625 2.7225 -0.5625 3.3825 -0.5625 4.0625 C-3.8625 4.7225 -7.1625 5.3825 -10.5625 6.0625 C-10.5625 7.0525 -10.5625 8.0425 -10.5625 9.0625 C-12.875 10.8125 -12.875 10.8125 -15.5625 12.0625 C-16.5525 11.7325 -17.5425 11.4025 -18.5625 11.0625 C-14.8162307 6.69185248 -10.87171213 4.50881809 -5.671875 2.078125 C-1.42811265 0.03483202 -1.42811265 0.03483202 0 0 Z " fill="#FAC185" transform="translate(76.5625,4.9375)"/>
<path d="M0 0 C6.27 0 12.54 0 19 0 C18.67 0.99 18.34 1.98 18 3 C15.56242587 3.02698422 13.12515085 3.04683099 10.6875 3.0625 C9.99720703 3.07087891 9.30691406 3.07925781 8.59570312 3.08789062 C5.4516975 3.10307906 3.00579981 3.00193327 0 2 C0 1.34 0 0.68 0 0 Z " fill="#1C1918" transform="translate(0,98)"/>
<path d="M0 0 C1.65 0 3.3 0 5 0 C4.67 0.99 4.34 1.98 4 3 C3.34 3 2.68 3 2 3 C1.79375 3.639375 1.5875 4.27875 1.375 4.9375 C0 7 0 7 -3.125 7.75 C-4.07375 7.8325 -5.0225 7.915 -6 8 C-6 8.99 -6 9.98 -6 11 C-6.99 11 -7.98 11 -9 11 C-8.61402985 8.20171644 -8.19863427 7.1794116 -6.0625 5.25 C-4 4 -4 4 -2 4 C-1.34 2.68 -0.68 1.36 0 0 Z " fill="#FBC689" transform="translate(36,0)"/>
<path d="M0 0 C1.65 0.33 3.3 0.66 5 1 C5 5 5 5 4 8 C1.03 8 -1.94 8 -5 8 C-5 6.35 -5 4.7 -5 3 C-4.67 3.99 -4.34 4.98 -4 6 C-1.98491642 6.73323796 -1.98491642 6.73323796 0 7 C0 4.69 0 2.38 0 0 Z " fill="#8A8079" transform="translate(5,77)"/>
<path d="M0 0 C1.43739513 -0.02712066 2.87493863 -0.04645067 4.3125 -0.0625 C5.51326172 -0.07990234 5.51326172 -0.07990234 6.73828125 -0.09765625 C9 0 9 0 12 1 C12 2.32 12 3.64 12 5 C8.94925785 5.28780586 6.03816258 5.45787911 3 5 C0.9375 2.5 0.9375 2.5 0 0 Z " fill="#F6F7F6" transform="translate(3,19)"/>
<path d="M0 0 C2.71747807 1.24025901 5.36485839 2.59415522 8 4 C8 5.65 8 7.3 8 9 C6.2925002 7.71937515 4.62626404 6.38232443 3 5 C3 4.34 3 3.68 3 3 C-0.3 3 -3.6 3 -7 3 C-7 2.01 -7 1.02 -7 0 C-4.19259281 -1.40370359 -3.02916393 -0.85606807 0 0 Z " fill="#69381B" transform="translate(76,39)"/>
<path d="M0 0 C1.32 0 2.64 0 4 0 C4.33 0.66 4.66 1.32 5 2 C7.57951874 2.69093896 7.57951874 2.69093896 10.5625 3.125 C11.57441406 3.29257812 12.58632812 3.46015625 13.62890625 3.6328125 C14.80259766 3.81457031 14.80259766 3.81457031 16 4 C16 5.65 16 7.3 16 9 C15.48050781 8.77183594 14.96101563 8.54367188 14.42578125 8.30859375 C10.25528555 6.58951696 7.46726213 5.46437864 3 7 C3 5.02 3 3.04 3 1 C2.01 0.67 1.02 0.34 0 0 Z " fill="#E8C49F" transform="translate(68,30)"/>
<path d="M0 0 C0.33 2.31 0.66 4.62 1 7 C-2.3 7 -5.6 7 -9 7 C-9 6.67 -9 6.34 -9 6 C-7.02 5.67 -5.04 5.34 -3 5 C-4.65 4.67 -6.3 4.34 -8 4 C-8 3.01 -8 2.02 -8 1 C-5.07175348 0.02391783 -3.04386724 -0.08226668 0 0 Z " fill="#675D57" transform="translate(55,95)"/>
<path d="M0 0 C5.75 -0.125 5.75 -0.125 8 1 C8 1.66 8 2.32 8 3 C11.3 3 14.6 3 18 3 C18 4.32 18 5.64 18 7 C15.36 6.67 12.72 6.34 10 6 C10 5.34 10 4.68 10 4 C9.0925 3.896875 8.185 3.79375 7.25 3.6875 C3.98038425 2.99585051 2.46282263 2.17865079 0 0 Z " fill="#9D9791" transform="translate(19,79)"/>
<path d="M0 0 C0.33 1.32 0.66 2.64 1 4 C-1.31 4.33 -3.62 4.66 -6 5 C-6.33 4.34 -6.66 3.68 -7 3 C-12.94 3.495 -12.94 3.495 -19 4 C-19 3.34 -19 2.68 -19 2 C-12.73 1.34 -6.46 0.68 0 0 Z " fill="#96643A" transform="translate(19,91)"/>
<path d="M0 0 C2.97 0.495 2.97 0.495 6 1 C6 1.66 6 2.32 6 3 C6.66 3 7.32 3 8 3 C8.33 4.32 8.66 5.64 9 7 C8.01 6.67 7.02 6.34 6 6 C6 6.99 6 7.98 6 9 C6.99 9 7.98 9 9 9 C9 9.66 9 10.32 9 11 C7.35 11.33 5.7 11.66 4 12 C3.67 9.69 3.34 7.38 3 5 C2.01 4.67 1.02 4.34 0 4 C0 2.66666667 0 1.33333333 0 0 Z " fill="#E4E4E6" transform="translate(57,27)"/>
<path d="M0 0 C0.66 0 1.32 0 2 0 C2 1.98 2 3.96 2 6 C5.3 5.67 8.6 5.34 12 5 C11.34 6.32 10.68 7.64 10 9 C9.67 8.34 9.34 7.68 9 7 C8.34 7 7.68 7 7 7 C7.33 7.99 7.66 8.98 8 10 C6.68 10 5.36 10 4 10 C3.01 10.33 2.02 10.66 1 11 C0.67 7.37 0.34 3.74 0 0 Z " fill="#CCCBC9" transform="translate(0,20)"/>
<path d="M0 0 C6.75 -0.125 6.75 -0.125 9 1 C9 2.65 9 4.3 9 6 C7.02 6 5.04 6 3 6 C3 5.34 3 4.68 3 4 C2.34 4 1.68 4 1 4 C0.67 2.68 0.34 1.36 0 0 Z " fill="#2A2A2A" transform="translate(75,92)"/>
<path d="M0 0 C2.97 0 5.94 0 9 0 C9 0.99 9 1.98 9 3 C7.35 3 5.7 3 4 3 C4 3.66 4 4.32 4 5 C2.02 5.33 0.04 5.66 -2 6 C-2 5.01 -2 4.02 -2 3 C-1.34 3 -0.68 3 0 3 C0 2.01 0 1.02 0 0 Z " fill="#9D9D9D" transform="translate(2,103)"/>
<path d="M0 0 C2 2 2 2 2 6 C3.093125 6.2475 4.18625 6.495 5.3125 6.75 C9.05908409 8.02002851 10.10595266 8.65756352 12 12 C10.54077307 11.88590407 9.08259402 11.75834456 7.625 11.625 C6.81289062 11.55539063 6.00078125 11.48578125 5.1640625 11.4140625 C3 11 3 11 1 9 C0.33203125 7.08984375 0.33203125 7.08984375 -0.1875 4.9375 C-0.36667969 4.22464844 -0.54585938 3.51179688 -0.73046875 2.77734375 C-0.81941406 2.19082031 -0.90835937 1.60429688 -1 1 C-0.67 0.67 -0.34 0.34 0 0 Z " fill="#959594" transform="translate(7,66)"/>
<path d="M0 0 C2.74086056 -0.22223194 4.43963721 -0.34781139 6.8125 1.125 C8.49106106 3.77535957 8.20450238 5.93246424 8 9 C6.65826597 8.07456291 5.32679841 7.13422595 4 6.1875 C3.2575 5.66542969 2.515 5.14335938 1.75 4.60546875 C1.1725 4.07566406 0.595 3.54585937 0 3 C0 2.01 0 1.02 0 0 Z " fill="#FAD6AB" transform="translate(76,45)"/>
<path d="M0 0 C1.32 0.66 2.64 1.32 4 2 C4 2.66 4 3.32 4 4 C1 6 1 6 -1.4453125 5.828125 C-2.32960938 5.63734375 -3.21390625 5.4465625 -4.125 5.25 C-5.45917969 4.97929688 -5.45917969 4.97929688 -6.8203125 4.703125 C-7.53960937 4.47109375 -8.25890625 4.2390625 -9 4 C-9.33 3.34 -9.66 2.68 -10 2 C-8.72125 2.04125 -7.4425 2.0825 -6.125 2.125 C-3.98128508 2.24212873 -3.98128508 2.24212873 -2 2 C-1.34 1.34 -0.68 0.68 0 0 Z " fill="#7B6452" transform="translate(48,28)"/>
<path d="M0 0 C0.33 1.32 0.66 2.64 1 4 C0.34 4 -0.32 4 -1 4 C-1 4.66 -1 5.32 -1 6 C-2.43554025 6.50559908 -3.8735202 7.0042749 -5.3125 7.5 C-6.51326172 7.91765625 -6.51326172 7.91765625 -7.73828125 8.34375 C-10 9 -10 9 -13 9 C-13 8.01 -13 7.02 -13 6 C-9.49223216 4.39644899 -6.85645121 3.77963136 -3 4 C-3 3.34 -3 2.68 -3 2 C-2.01 2 -1.02 2 0 2 C0 1.34 0 0.68 0 0 Z " fill="#F1B06B" transform="translate(79,5)"/>
<path d="M0 0 C0.94875 0.04125 1.8975 0.0825 2.875 0.125 C2.875 1.115 2.875 2.105 2.875 3.125 C-2.30078125 6.34765625 -2.30078125 6.34765625 -4.125 7.125 C-5.115 6.795 -6.105 6.465 -7.125 6.125 C-4.34782609 0.17391304 -4.34782609 0.17391304 0 0 Z " fill="#F3F1F0" transform="translate(58.125,5.875)"/>
<path d="M0 0 C0.8971875 0.309375 0.8971875 0.309375 1.8125 0.625 C1.8125 1.285 1.8125 1.945 1.8125 2.625 C-1.9375 3.75 -1.9375 3.75 -4.1875 2.625 C-4.1875 3.285 -4.1875 3.945 -4.1875 4.625 C-6.1675 5.615 -6.1675 5.615 -8.1875 6.625 C-8.1875 5.965 -8.1875 5.305 -8.1875 4.625 C-8.8475 4.625 -9.5075 4.625 -10.1875 4.625 C-10.5175 3.305 -10.8475 1.985 -11.1875 0.625 C-10.259375 0.83125 -9.33125 1.0375 -8.375 1.25 C-4.50441799 1.70536259 -3.55315226 -0.60911182 0 0 Z " fill="#737272" transform="translate(76.1875,83.375)"/>
<path d="M0 0 C2.375 0.25 2.375 0.25 5 1 C6.3125 3.0625 6.3125 3.0625 7 5 C8.65 4.67 10.3 4.34 12 4 C12 4.99 12 5.98 12 7 C10.02253397 7.73080266 8.01927511 8.39421747 6 9 C5.34 8.67 4.68 8.34 4 8 C3.375 4.9375 3.375 4.9375 3 2 C2.01 2 1.02 2 0 2 C0 1.34 0 0.68 0 0 Z " fill="#333233" transform="translate(34,68)"/>
<path d="M0 0 C0.66 0 1.32 0 2 0 C2 1.32 2 2.64 2 4 C2.969375 4.2475 3.93875 4.495 4.9375 4.75 C5.948125 5.1625 6.95875 5.575 8 6 C8.875 8.125 8.875 8.125 9 10 C6.69 10.33 4.38 10.66 2 11 C2 10.34 2 9.68 2 9 C1.34 8.67 0.68 8.34 0 8 C0.99 7.67 1.98 7.34 3 7 C2.01 6.34 1.02 5.68 0 5 C-0.1875 2.375 -0.1875 2.375 0 0 Z " fill="#846D58" transform="translate(16,20)"/>
<path d="M0 0 C2.31 0.33 4.62 0.66 7 1 C7 1.66 7 2.32 7 3 C5.68 3.33 4.36 3.66 3 4 C3 4.99 3 5.98 3 7 C3.66 7.33 4.32 7.66 5 8 C3.68 8 2.36 8 1 8 C0.34 6.35 -0.32 4.7 -1 3 C-1.99 3.33 -2.98 3.66 -4 4 C-4 3.34 -4 2.68 -4 2 C-2.68 2 -1.36 2 0 2 C0 1.34 0 0.68 0 0 Z " fill="#5E5E5E" transform="translate(73,89)"/>
<path d="M0 0 C2.31 0 4.62 0 7 0 C6.01 0.33 5.02 0.66 4 1 C4 1.66 4 2.32 4 3 C5.423125 3.37125 5.423125 3.37125 6.875 3.75 C10 5 10 5 11.375 7.125 C11.58125 7.74375 11.7875 8.3625 12 9 C7.97032739 7.78172689 4.39841445 6.52453645 1 4 C0.1875 1.8125 0.1875 1.8125 0 0 Z " fill="#F3F2F2" transform="translate(9,64)"/>
<path d="M0 0 C4.92947689 -0.10150789 9.56533119 0.25757428 14.4375 1 C16.29181641 1.2784375 16.29181641 1.2784375 18.18359375 1.5625 C19.11300781 1.706875 20.04242188 1.85125 21 2 C20.67 2.99 20.34 3.98 20 5 C14.36585366 4.10365854 14.36585366 4.10365854 12.125 3.46875 C9.61373504 2.91479449 7.31917413 2.90369508 4.75 2.9375 C3.41195312 2.95103516 3.41195312 2.95103516 2.046875 2.96484375 C1.37140625 2.97644531 0.6959375 2.98804688 0 3 C0 2.01 0 1.02 0 0 Z " fill="#BD8451" transform="translate(35,57)"/>
<path d="M0 0 C1.65 0 3.3 0 5 0 C4.2884375 0.5878125 4.2884375 0.5878125 3.5625 1.1875 C1.64820367 3.40808374 1.38733012 5.13375709 1 8 C1.556875 7.690625 2.11375 7.38125 2.6875 7.0625 C5.12540433 5.94238179 7.36224186 5.43962636 10 5 C9.01 5.495 9.01 5.495 8 6 C8 7.65 8 9.3 8 11 C4.28400809 11.20086443 3.22791555 11.1519437 0 9 C-0.29296875 6.8359375 -0.29296875 6.8359375 -0.1875 4.375 C-0.16042969 3.55773437 -0.13335937 2.74046875 -0.10546875 1.8984375 C-0.05326172 0.95871094 -0.05326172 0.95871094 0 0 Z " fill="#5F5F5F" transform="translate(59,88)"/>
<path d="M0 0 C0.99 0 1.98 0 3 0 C3 0.66 3 1.32 3 2 C3.66 2 4.32 2 5 2 C4.67 2.66 4.34 3.32 4 4 C3.01 4 2.02 4 1 4 C1 4.66 1 5.32 1 6 C-8.59453303 5.40546697 -8.59453303 5.40546697 -12 2 C-7.97007218 2.55312735 -3.97977076 3.1558062 0 4 C0 2.68 0 1.36 0 0 Z " fill="#564E47" transform="translate(37,82)"/>
<path d="M0 0 C0 1.65 0 3.3 0 5 C-3.96 4.67 -7.92 4.34 -12 4 C-12 3.34 -12 2.68 -12 2 C-10.56342755 1.66269158 -9.12569907 1.33030409 -7.6875 1 C-6.88699219 0.814375 -6.08648437 0.62875 -5.26171875 0.4375 C-3 0 -3 0 0 0 Z " fill="#FCD1A0" transform="translate(84,68)"/>
<path d="M0 0 C0.99 0 1.98 0 3 0 C3 2.64 3 5.28 3 8 C-3.52307692 8.36923077 -3.52307692 8.36923077 -5.9375 6.5 C-6.4634375 5.7575 -6.4634375 5.7575 -7 5 C-6.01 4.67 -5.02 4.34 -4 4 C-3.67 4.99 -3.34 5.98 -3 7 C-2.34 7 -1.68 7 -1 7 C-0.67 4.69 -0.34 2.38 0 0 Z " fill="#5C5049" transform="translate(81,60)"/>
<path d="M0 0 C1.45792884 -0.05399736 2.91642712 -0.09279177 4.375 -0.125 C5.18710937 -0.14820313 5.99921875 -0.17140625 6.8359375 -0.1953125 C9 0 9 0 11 2 C10.01 2 9.02 2 8 2 C8 2.66 8 3.32 8 4 C5.03 4 2.06 4 -1 4 C-0.67 2.68 -0.34 1.36 0 0 Z " fill="#F3F2F0" transform="translate(58,57)"/>
<path d="M0 0 C0.99 0 1.98 0 3 0 C3 1.65 3 3.3 3 5 C0.69 5.33 -1.62 5.66 -4 6 C-4 5.34 -4 4.68 -4 4 C-4.99 3.67 -5.98 3.34 -7 3 C-6.67 2.34 -6.34 1.68 -6 1 C-4.7934375 1.0309375 -4.7934375 1.0309375 -3.5625 1.0625 C-1.06645115 1.29633621 -1.06645115 1.29633621 0 0 Z " fill="#DDB68C" transform="translate(15,35)"/>
<path d="M0 0 C0.70125 0.19335938 1.4025 0.38671875 2.125 0.5859375 C7.73492134 2.125617 13.35010447 3.61417657 19 5 C18.67 5.66 18.34 6.32 18 7 C15.03 6.67 12.06 6.34 9 6 C9 5.34 9 4.68 9 4 C6.36 3.67 3.72 3.34 1 3 C0.67 2.01 0.34 1.02 0 0 Z " fill="#C6C4C2" transform="translate(18,76)"/>
<path d="M0 0 C0.66 0.33 1.32 0.66 2 1 C2 2.65 2 4.3 2 6 C4.97 6.495 4.97 6.495 8 7 C8 7.33 8 7.66 8 8 C3.38 8.33 -1.24 8.66 -6 9 C-5.34 8.34 -4.68 7.68 -4 7 C-3.01 7 -2.02 7 -1 7 C-1.33 5.02 -1.66 3.04 -2 1 C-1.34 0.67 -0.68 0.34 0 0 Z " fill="#BCB0A6" transform="translate(73,61)"/>
<path d="M0 0 C1.32 0.33 2.64 0.66 4 1 C3.319375 1.7425 2.63875 2.485 1.9375 3.25 C-0.28353676 5.75949064 -0.28353676 5.75949064 0.25 8.3125 C0.4975 8.869375 0.745 9.42625 1 10 C-0.98 10.33 -2.96 10.66 -5 11 C-4.46884894 6.48521602 -2.63379708 3.65333143 0 0 Z " fill="#CAB6A7" transform="translate(22,0)"/>
<path d="M0 0 C2.64 0.33 5.28 0.66 8 1 C7.01 1.495 7.01 1.495 6 2 C6 3.65 6 5.3 6 7 C3.03 6.505 3.03 6.505 0 6 C0 5.34 0 4.68 0 4 C-1.32 3.67 -2.64 3.34 -4 3 C-2.68 3 -1.36 3 0 3 C0 2.01 0 1.02 0 0 Z " fill="#9A9A9A" transform="translate(76,97)"/>
<path d="M0 0 C8.35010941 2.3107221 8.35010941 2.3107221 11.0625 5.1875 C11.371875 5.785625 11.68125 6.38375 12 7 C8.0482998 7.3763524 6.17705367 7.09508438 2.625 5.1875 C1.75875 4.465625 0.8925 3.74375 0 3 C0 2.01 0 1.02 0 0 Z " fill="#0D0C0B" transform="translate(23,84)"/>
<path d="M0 0 C0.66 0 1.32 0 2 0 C2.33 1.65 2.66 3.3 3 5 C2.34 5 1.68 5 1 5 C1 5.99 1 6.98 1 8 C-1.64 7.67 -4.28 7.34 -7 7 C-6.21625 6.401875 -5.4325 5.80375 -4.625 5.1875 C-1.85425677 3.08914751 -1.85425677 3.08914751 0 0 Z " fill="#B0744D" transform="translate(18,57)"/>
<path d="M0 0 C0.66 0 1.32 0 2 0 C2 0.66 2 1.32 2 2 C3.98 2 5.96 2 8 2 C8 2.99 8 3.98 8 5 C4.38026598 6.31626692 1.90432869 7 -2 7 C-2 5 -2 5 -0.5 3.375 C-0.005 2.92125 0.49 2.4675 1 2 C0.34 1.67 -0.32 1.34 -1 1 C-0.67 0.67 -0.34 0.34 0 0 Z " fill="#D08F51" transform="translate(9,39)"/>
<path d="M0 0 C0.99 0.33 1.98 0.66 3 1 C3 3.64 3 6.28 3 9 C2.34 9 1.68 9 1 9 C1 8.34 1 7.68 1 7 C0.34 7 -0.32 7 -1 7 C-1.33 7.66 -1.66 8.32 -2 9 C-2 8.01 -2 7.02 -2 6 C-2.99 5.67 -3.98 5.34 -5 5 C-4.34 5 -3.68 5 -3 5 C-3 4.01 -3 3.02 -3 2 C-2.01 2 -1.02 2 0 2 C0 1.34 0 0.68 0 0 Z " fill="#EED8C5" transform="translate(48,12)"/>
<path d="M0 0 C0.73734375 -0.01224609 1.4746875 -0.02449219 2.234375 -0.03710938 C4.15770058 -0.04237395 6.08054263 0.06546553 8 0.1875 C8.66 0.8475 9.32 1.5075 10 2.1875 C7.35541621 3.50979189 5.32238699 3.28427194 2.375 3.25 C1.37210938 3.24097656 0.36921875 3.23195313 -0.6640625 3.22265625 C-1.43492188 3.21105469 -2.20578125 3.19945312 -3 3.1875 C-3 3.5175 -3 3.8475 -3 4.1875 C-5.375 4.375 -5.375 4.375 -8 4.1875 C-8.66 3.1975 -9.32 2.2075 -10 1.1875 C-6.84044583 -0.39227708 -3.46536183 0.00302916 0 0 Z " fill="#C8B9A9" transform="translate(37,27.8125)"/>
<path d="M0 0 C0.33 0.33 0.66 0.66 1 1 C3.32817964 1.36760731 5.6618385 1.70241581 8 2 C8 2.33 8 2.66 8 3 C-0.415 3.495 -0.415 3.495 -9 4 C-8 1 -8 1 -6.1875 -0.25 C-3.63966526 -1.12354334 -2.48762358 -0.94358136 0 0 Z " fill="#B8B2AD" transform="translate(76,16)"/>
<path d="M0 0 C1.32 0.33 2.64 0.66 4 1 C3.01 1.495 3.01 1.495 2 2 C1.67 2.99 1.34 3.98 1 5 C2.65 5 4.3 5 6 5 C4.46126823 8.71860179 3.52488612 9.35633541 0 12 C0 8.04 0 4.08 0 0 Z " fill="#B3B3B3" transform="translate(0,2)"/>
<path d="M0 0 C1.32 0.33 2.64 0.66 4 1 C4 1.99 4 2.98 4 4 C5.11375 4.268125 6.2275 4.53625 7.375 4.8125 C11 6 11 6 13 9 C6 9 6 9 4.515625 7.6875 C3.34375 6.125 2.171875 4.5625 1 3 C1.33 2.34 1.66 1.68 2 1 C1.34 0.67 0.68 0.34 0 0 Z " fill="#79797A" transform="translate(35,64)"/>
<path d="M0 0 C-0.99 0.33 -1.98 0.66 -3 1 C-3.33 1.66 -3.66 2.32 -4 3 C-0.04 3.33 3.92 3.66 8 4 C8 4.33 8 4.66 8 5 C0.68889006 5.3689719 -5.21256822 4.81552726 -12 2 C-11.071875 1.78730469 -11.071875 1.78730469 -10.125 1.5703125 C-7.9502293 1.08064442 -7.9502293 1.08064442 -6 -0.125 C-3.56061193 -1.19223228 -2.45901654 -0.87822019 0 0 Z " fill="#F0BA83" transform="translate(49,54)"/>
<path d="M0 0 C-0.33 0.99 -0.66 1.98 -1 3 C-2.33333333 3.33333333 -3.66666667 3.66666667 -5 4 C-5.33 4.99 -5.66 5.98 -6 7 C-8.70879335 8.35439668 -11.00933268 8.06501451 -14 8 C-13.67 7.34 -13.34 6.68 -13 6 C-12.38125 5.855625 -11.7625 5.71125 -11.125 5.5625 C-8.5834871 4.88974659 -7.79495659 3.86974645 -6 2 C-2.52631579 0 -2.52631579 0 0 0 Z " fill="#9E663F" transform="translate(73,13)"/>
<path d="M0 0 C0 0.99 0 1.98 0 3 C0.99 3 1.98 3 3 3 C3 3.66 3 4.32 3 5 C0.04335481 6.4783226 -2.74229737 6.06032783 -6 6 C-3.84615385 0 -3.84615385 0 0 0 Z " fill="#534238" transform="translate(65,0)"/>
<path d="M0 0 C0 0.66 0 1.32 0 2 C-4.474325 5.25405454 -9.46005038 7 -15 7 C-15 6.34 -15 5.68 -15 5 C-12.8765984 4.16260219 -10.7512272 3.33019717 -8.625 2.5 C-7.44164063 2.0359375 -6.25828125 1.571875 -5.0390625 1.09375 C-2 0 -2 0 0 0 Z " fill="#1D140E" transform="translate(84,78)"/>
<path d="M0 0 C2.875 -0.125 2.875 -0.125 6 0 C6.66 0.66 7.32 1.32 8 2 C6.68 2 5.36 2 4 2 C4.99 3.98 5.98 5.96 7 8 C5.68 8 4.36 8 3 8 C0.82542733 5.12645755 0 3.63563409 0 0 Z " fill="#E8AB69" transform="translate(72,43)"/>
<path d="M0 0 C4.62 0 9.24 0 14 0 C14 0.33 14 0.66 14 1 C12.2984375 1.4640625 12.2984375 1.4640625 10.5625 1.9375 C7.21224901 2.62924531 7.21224901 2.62924531 6 4 C4.33382885 4.04063832 2.66611905 4.042721 1 4 C0.67 2.68 0.34 1.36 0 0 Z " fill="#EAEAEA" transform="translate(44,0)"/>
<path d="M0 0 C-1.32 0.33 -2.64 0.66 -4 1 C-4 1.66 -4 2.32 -4 3 C-4.99 3 -5.98 3 -7 3 C-7 3.66 -7 4.32 -7 5 C-9.48448024 3.75775988 -11.67054766 2.55296823 -14 1 C-12.35 1 -10.7 1 -9 1 C-9 0.34 -9 -0.32 -9 -1 C-5.79937313 -2.60031344 -3.27728194 -1.03173691 0 0 Z " fill="#27211D" transform="translate(47,87)"/>
<path d="M0 0 C0.33 0 0.66 0 1 0 C1 2.31 1 4.62 1 7 C2.65 7 4.3 7 6 7 C6.33 7.99 6.66 8.98 7 10 C6.21625 10.28875 5.4325 10.5775 4.625 10.875 C1.90328368 11.84912254 1.90328368 11.84912254 0 14 C0 9.38 0 4.76 0 0 Z " fill="#E1D9D2" transform="translate(0,59)"/>
<path d="M0 0 C2.31 0 4.62 0 7 0 C5.02 0.99 5.02 0.99 3 2 C3 2.66 3 3.32 3 4 C9.435 3.505 9.435 3.505 16 3 C15.67 3.66 15.34 4.32 15 5 C10.38 5 5.76 5 1 5 C0.67 3.35 0.34 1.7 0 0 Z " fill="#E6AE77" transform="translate(51,17)"/>
<path d="M0 0 C1.65 0.33 3.3 0.66 5 1 C5.33 1.99 5.66 2.98 6 4 C7.32 4 8.64 4 10 4 C9.67 4.99 9.34 5.98 9 7 C7.35 6.67 5.7 6.34 4 6 C4 5.34 4 4.68 4 4 C2.35 4 0.7 4 -1 4 C-0.34 3.34 0.32 2.68 1 2 C0.67 1.34 0.34 0.68 0 0 Z " fill="#FBDFC2" transform="translate(21,7)"/>
<path d="M0 0 C2.05078125 0.03255208 4.1015625 0.06510417 6.15234375 0.09765625 C4.15234375 3.09765625 4.15234375 3.09765625 1.15234375 4.09765625 C0.82234375 4.75765625 0.49234375 5.41765625 0.15234375 6.09765625 C-0.83765625 6.09765625 -1.82765625 6.09765625 -2.84765625 6.09765625 C-2.89037725 4.4315372 -2.88829457 2.7638274 -2.84765625 1.09765625 C-1.84765625 0.09765625 -1.84765625 0.09765625 0 0 Z " fill="#F6F6F6" transform="translate(14.84765625,-0.09765625)"/>
<path d="M0 0 C4.41889613 1.35021826 6.34345343 3.26115668 9 7 C6.69 7.33 4.38 7.66 2 8 C1.34 5.36 0.68 2.72 0 0 Z " fill="#DC9863" transform="translate(20,57)"/>
<path d="M0 0 C2.31 0 4.62 0 7 0 C6.75 2.375 6.75 2.375 6 5 C3.9375 6.3125 3.9375 6.3125 2 7 C1.34 4.69 0.68 2.38 0 0 Z " fill="#F2F1F0" transform="translate(28,57)"/>
<path d="M0 0 C0.99 0.33 1.98 0.66 3 1 C3.33 1.99 3.66 2.98 4 4 C3.34 4 2.68 4 2 4 C2.66 5.65 3.32 7.3 4 9 C1.36 8.67 -1.28 8.34 -4 8 C-2.68 7.67 -1.36 7.34 0 7 C-0.185625 6.401875 -0.37125 5.80375 -0.5625 5.1875 C-1 3 -1 3 0 0 Z " fill="#79736E" transform="translate(12,24)"/>
<path d="M0 0 C0.33 0 0.66 0 1 0 C1 1.98 1 3.96 1 6 C2.65 6 4.3 6 6 6 C6.33 6.66 6.66 7.32 7 8 C4.03 8 1.06 8 -2 8 C-2.33 6.02 -2.66 4.04 -3 2 C-2.34 2 -1.68 2 -1 2 C-0.67 1.34 -0.34 0.68 0 0 Z " fill="#464544" transform="translate(46,93)"/>
<path d="M0 0 C1.65 0 3.3 0 5 0 C5.33 0.66 5.66 1.32 6 2 C1.69230769 6.92307692 1.69230769 6.92307692 -1.8125 7.3125 C-2.8953125 7.1578125 -2.8953125 7.1578125 -4 7 C-3.01 6.67 -2.02 6.34 -1 6 C-0.67 4.02 -0.34 2.04 0 0 Z " fill="#D89361" transform="translate(14,55)"/>
<path d="M0 0 C2.97 0 5.94 0 9 0 C9.33 1.98 9.66 3.96 10 6 C8.02 5.34 6.04 4.68 4 4 C4 3.34 4 2.68 4 2 C2.68 1.34 1.36 0.68 0 0 Z " fill="#CF8957" transform="translate(0,55)"/>
<path d="M0 0 C1.32 0.66 2.64 1.32 4 2 C3.34 3.32 2.68 4.64 2 6 C0.35 6 -1.3 6 -3 6 C-3.33 4.68 -3.66 3.36 -4 2 C-2.68 2 -1.36 2 0 2 C0 1.34 0 0.68 0 0 Z " fill="#A39E9C" transform="translate(15,47)"/>
<path d="M0 0 C1.18331753 1.7749763 2.32688612 3.57947994 3.375 5.4375 C5.00764504 8.01205564 6.77587834 9.92926604 9 12 C5.06368636 12 3.87394974 10.57142871 1 8 C-0.35439668 5.29120665 -0.06501451 2.99066732 0 0 Z " fill="#BD7F48" transform="translate(71,43)"/>
<path d="M0 0 C0.99 0 1.98 0 3 0 C3 2.64 3 5.28 3 8 C1.68 8 0.36 8 -1 8 C-1.04241723 5.66705225 -1.04092937 3.33297433 -1 1 C-0.67 0.67 -0.34 0.34 0 0 Z " fill="#B68E62" transform="translate(68,31)"/>
<path d="M0 0 C1.45823212 -0.0270043 2.91660675 -0.04639787 4.375 -0.0625 C5.18710937 -0.07410156 5.99921875 -0.08570312 6.8359375 -0.09765625 C9 0 9 0 11 1 C11 1.66 11 2.32 11 3 C7.37 3 3.74 3 0 3 C0 2.01 0 1.02 0 0 Z " fill="#F9F9F9" transform="translate(20,31)"/>
<path d="M0 0 C-0.125 1.875 -0.125 1.875 -1 4 C-4.0625 5.25 -4.0625 5.25 -7 6 C-7 4.35 -7 2.7 -7 1 C-4 0 -4 0 0 0 Z " fill="#F3F3F2" transform="translate(79,20)"/>
<path d="M0 0 C4.95 0.33 9.9 0.66 15 1 C15 1.33 15 1.66 15 2 C8.565 2.495 8.565 2.495 2 3 C2 3.99 2 4.98 2 6 C1.34 6 0.68 6 0 6 C0 4.02 0 2.04 0 0 Z " fill="#545454" transform="translate(0,100)"/>
<path d="M0 0 C2.475 0.99 2.475 0.99 5 2 C5 4.31 5 6.62 5 9 C3.68 8.67 2.36 8.34 1 8 C1 7.34 1 6.68 1 6 C0.34 6 -0.32 6 -1 6 C-1 5.34 -1 4.68 -1 4 C-0.01 3.67 0.98 3.34 2 3 C1.34 2.01 0.68 1.02 0 0 Z " fill="#464646" transform="translate(79,84)"/>
<path d="M0 0 C1.65 0 3.3 0 5 0 C5.625 2.375 5.625 2.375 6 5 C5.34 5.66 4.68 6.32 4 7 C1.375 6.625 1.375 6.625 -1 6 C-0.01 4.68 0.98 3.36 2 2 C1.34 1.34 0.68 0.68 0 0 Z " fill="#B1AEAC" transform="translate(29,44)"/>
<path d="M0 0 C0.99 0 1.98 0 3 0 C3 0.66 3 1.32 3 2 C3.99 2 4.98 2 6 2 C6 3.32 6 4.64 6 6 C3.69 5.67 1.38 5.34 -1 5 C-0.67 3.35 -0.34 1.7 0 0 Z " fill="#9E7956" transform="translate(13,12)"/>
<path d="M0 0 C1.32 0.33 2.64 0.66 4 1 C2.4375 3 2.4375 3 0 5 C-4.40203429 5.46337203 -6.2794164 5.48038907 -10 3 C-7.03 3 -4.06 3 -1 3 C-0.67 2.01 -0.34 1.02 0 0 Z " fill="#F2C79C" transform="translate(71,3)"/>
<path d="M0 0 C4.95 0 9.9 0 15 0 C15.33 0.66 15.66 1.32 16 2 C12.0585998 3.03038433 9.16384848 2.87693282 5.1875 2.0625 C4.21167969 1.86785156 3.23585938 1.67320312 2.23046875 1.47265625 C1.49441406 1.31667969 0.75835937 1.16070312 0 1 C0 0.67 0 0.34 0 0 Z " fill="#EDECEB" transform="translate(66,0)"/>
<path d="M0 0 C-0.33 1.32 -0.66 2.64 -1 4 C-3.64 4 -6.28 4 -9 4 C-9 3.01 -9 2.02 -9 1 C-5.92677456 0.08941469 -3.19902639 -0.08886184 0 0 Z " fill="#674428" transform="translate(9,94)"/>
<path d="M0 0 C1.65 0 3.3 0 5 0 C5 2.31 5 4.62 5 7 C3.68 6.67 2.36 6.34 1 6 C0.67 4.02 0.34 2.04 0 0 Z " fill="#D5D5D6" transform="translate(0,77)"/>
<path d="M0 0 C8.54545455 1.15034965 8.54545455 1.15034965 11 2 C11.33 2.66 11.66 3.32 12 4 C10.02 4.66 8.04 5.32 6 6 C5.67 5.34 5.34 4.68 5 4 C3.02111039 3.27306096 1.02045442 2.60183749 -1 2 C-0.67 1.34 -0.34 0.68 0 0 Z " fill="#E2A367" transform="translate(41,45)"/>
<path d="M0 0 C2.98704569 0.49784095 4.39324263 1.26216175 7 3 C7 3.66 7 4.32 7 5 C6.01 5 5.02 5 4 5 C4 4.34 4 3.68 4 3 C3.01 3 2.02 3 1 3 C1 3.66 1 4.32 1 5 C-0.32 5 -1.64 5 -3 5 C-1.125 1.125 -1.125 1.125 0 0 Z " fill="#372A22" transform="translate(37,5)"/>
<path d="M0 0 C1.09651823 3.41139003 0.94215473 6.20655581 0.5625 9.75 C0.40974609 11.22726563 0.40974609 11.22726563 0.25390625 12.734375 C0.12822266 13.85585937 0.12822266 13.85585937 0 15 C1.98 15 3.96 15 6 15 C6 15.33 6 15.66 6 16 C2.04 16.495 2.04 16.495 -2 17 C-1.85899143 14.72886197 -1.71203245 12.45809275 -1.5625 10.1875 C-1.48128906 8.92292969 -1.40007813 7.65835938 -1.31640625 6.35546875 C-1 3 -1 3 0 0 Z " fill="#D6D5D4" transform="translate(49,79)"/>
<path d="M0 0 C0.350625 0.515625 0.70125 1.03125 1.0625 1.5625 C-4.35288462 3.77788462 -4.35288462 3.77788462 -7.3125 2.6875 C-7.84875 2.31625 -8.385 1.945 -8.9375 1.5625 C-8.9375 0.9025 -8.9375 0.2425 -8.9375 -0.4375 C-2.41442308 -1.79134615 -2.41442308 -1.79134615 0 0 Z " fill="#423E3D" transform="translate(71.9375,54.4375)"/>
<path d="M0 0 C-0.66 0 -1.32 0 -2 0 C-2 0.66 -2 1.32 -2 2 C-4.30368736 3.06652192 -6.64018187 4.06421005 -9 5 C-9.66 4.67 -10.32 4.34 -11 4 C-10.67 3.01 -10.34 2.02 -10 1 C-3.84210526 -1.28070175 -3.84210526 -1.28070175 0 0 Z " fill="#4B2C17" transform="translate(63,50)"/>
<path d="M0 0 C3.3 0 6.6 0 10 0 C9.34 1.65 8.68 3.3 8 5 C6.35 5 4.7 5 3 5 C3 4.01 3 3.02 3 2 C2.01 1.34 1.02 0.68 0 0 Z " fill="#D4A67F" transform="translate(52,40)"/>
<path d="M0 0 C3.3 0.33 6.6 0.66 10 1 C10 1.99 10 2.98 10 4 C6.7 3.67 3.4 3.34 0 3 C0 2.01 0 1.02 0 0 Z " fill="#FBDBB7" transform="translate(74,30)"/>
<path d="M0 0 C0.625 1.8125 0.625 1.8125 1 4 C0.01 5.485 0.01 5.485 -1 7 C-3.475 6.01 -3.475 6.01 -6 5 C-6 3 -6 3 -4.6875 1.375 C-3 0 -3 0 0 0 Z " fill="#827167" transform="translate(44,0)"/>
<path d="M0 0 C4.55384615 -0.36923077 4.55384615 -0.36923077 6.8125 1.5 C7.204375 1.995 7.59625 2.49 8 3 C7.34 3 6.68 3 6 3 C6 3.99 6 4.98 6 6 C4.68 6 3.36 6 2 6 C2 4.68 2 3.36 2 2 C1.34 1.34 0.68 0.68 0 0 Z " fill="#959494" transform="translate(56,97)"/>
<path d="M0 0 C1.65 0 3.3 0 5 0 C5 0.66 5 1.32 5 2 C4.01 2.495 4.01 2.495 3 3 C3 3.66 3 4.32 3 5 C3.99 5.33 4.98 5.66 6 6 C3.36 6 0.72 6 -2 6 C-1.49396008 3.83125748 -1.00016187 2.00032373 0 0 Z " fill="#151413" transform="translate(34,89)"/>
<path d="M0 0 C1.97986082 0.11347619 3.95891598 0.2410935 5.9375 0.375 C7.03964844 0.44460937 8.14179687 0.51421875 9.27734375 0.5859375 C10.62505859 0.79089844 10.62505859 0.79089844 12 1 C12.33 1.66 12.66 2.32 13 3 C12.01 3 11.02 3 10 3 C10 3.66 10 4.32 10 5 C8.35 4.67 6.7 4.34 5 4 C5 3.34 5 2.68 5 2 C3.35 2.33 1.7 2.66 0 3 C0 2.01 0 1.02 0 0 Z " fill="#B7B5B1" transform="translate(57,61)"/>
<path d="M0 0 C2.02045442 0.60183749 4.02111039 1.27306096 6 2 C6.33 2.66 6.66 3.32 7 4 C4.36 4.33 1.72 4.66 -1 5 C-0.67 3.35 -0.34 1.7 0 0 Z " fill="#402715" transform="translate(36,59)"/>
<path d="M0 0 C3.96 0 7.92 0 12 0 C11.34 1.32 10.68 2.64 10 4 C10.33 4.66 10.66 5.32 11 6 C9.68 6 8.36 6 7 6 C7.33 4.68 7.66 3.36 8 2 C5.36 1.67 2.72 1.34 0 1 C0 0.67 0 0.34 0 0 Z " fill="#B5865F" transform="translate(31,42)"/>
<path d="M0 0 C3 1 3 1 4 3 C7.02934491 3.65772428 7.02934491 3.65772428 10 4 C10 4.33 10 4.66 10 5 C6.7 5.33 3.4 5.66 0 6 C0 4.02 0 2.04 0 0 Z " fill="#E1E1E1" transform="translate(2,20)"/>
<path d="M0 0 C0.66 0.33 1.32 0.66 2 1 C1 4 1 4 -1.375 5.75 C-4 7 -4 7 -7 6 C-2.25 1.125 -2.25 1.125 0 0 Z " fill="#F6BA7C" transform="translate(65,10)"/>
<path d="M0 0 C1.98 0 3.96 0 6 0 C6.33 1.32 6.66 2.64 7 4 C5.68 4.33 4.36 4.66 3 5 C3 4.34 3 3.68 3 3 C1.68 2.67 0.36 2.34 -1 2 C-0.67 1.34 -0.34 0.68 0 0 Z " fill="#727272" transform="translate(65,97)"/>
<path d="M0 0 C0.66 0.33 1.32 0.66 2 1 C1.67 4.63 1.34 8.26 1 12 C0.67 12 0.34 12 0 12 C0 10.02 0 8.04 0 6 C-1.65 6 -3.3 6 -5 6 C-4.67 5.01 -4.34 4.02 -4 3 C-4 3.66 -4 4.32 -4 5 C-1.48916886 3.74458443 -1.12874554 2.49936512 0 0 Z " fill="#808081" transform="translate(47,81)"/>
<path d="M0 0 C1.98 0 3.96 0 6 0 C6.66 1.65 7.32 3.3 8 5 C6.35 5.33 4.7 5.66 3 6 C3.66 4.68 4.32 3.36 5 2 C3.35 2 1.7 2 0 2 C0 1.34 0 0.68 0 0 Z " fill="#F7E4CC" transform="translate(1,35)"/>
<path d="M0 0 C0.66 0 1.32 0 2 0 C2 1.98 2 3.96 2 6 C0.35 6 -1.3 6 -3 6 C-3.33 5.01 -3.66 4.02 -4 3 C-2.68 2.67 -1.36 2.34 0 2 C0 1.34 0 0.68 0 0 Z " fill="#9F8D74" transform="translate(82,25)"/>
<path d="M0 0 C2.4375 0.375 2.4375 0.375 5 1 C5.33 1.66 5.66 2.32 6 3 C2.375 6 2.375 6 -1 6 C-0.67 4.02 -0.34 2.04 0 0 Z " fill="#E1A063" transform="translate(39,14)"/>
<path d="M0 0 C1.32 0 2.64 0 4 0 C4 0.66 4 1.32 4 2 C3.01 2.33 2.02 2.66 1 3 C0.26676204 5.01508358 0.26676204 5.01508358 0 7 C-1.32 7 -2.64 7 -4 7 C-2.92598892 4.08482708 -2.22189824 2.22189824 0 0 Z " fill="#B9B3AF" transform="translate(12,10)"/>
<path d="M0 0 C0.99 0 1.98 0 3 0 C3 0.66 3 1.32 3 2 C6.3 2 9.6 2 13 2 C13 2.33 13 2.66 13 3 C7.06 3 1.12 3 -5 3 C-4.67 2.34 -4.34 1.68 -4 1 C-2.02 1.495 -2.02 1.495 0 2 C0 1.34 0 0.68 0 0 Z " fill="#67574D" transform="translate(38,8)"/>
<path d="M0 0 C0 3.39593478 -0.52165948 4.06619881 -2.5 6.6875 C-2.9640625 7.31011719 -3.428125 7.93273437 -3.90625 8.57421875 C-4.2671875 9.04472656 -4.628125 9.51523438 -5 10 C-5.99 9.67 -6.98 9.34 -8 9 C-7.67 8.34 -7.34 7.68 -7 7 C-6.34 7 -5.68 7 -5 7 C-4.731875 6.401875 -4.46375 5.80375 -4.1875 5.1875 C-3.01506533 3.02775192 -1.80630718 1.64209744 0 0 Z " fill="#E7E3E1" transform="translate(21,0)"/>
<path d="M0 0 C1.98 0 3.96 0 6 0 C5.3125 1.9375 5.3125 1.9375 4 4 C1.375 4.75 1.375 4.75 -1 5 C-0.67 3.35 -0.34 1.7 0 0 Z " fill="#FDDDAE" transform="translate(30,0)"/>
<path d="M0 0 C0 1.32 0 2.64 0 4 C-2.31 4 -4.62 4 -7 4 C-6.67 3.01 -6.34 2.02 -6 1 C-4 0 -4 0 0 0 Z " fill="#A9A9A9" transform="translate(52,105)"/>
<path d="M0 0 C4.95 0 9.9 0 15 0 C12 2 12 2 9.3125 1.625 C8.549375 1.41875 7.78625 1.2125 7 1 C7 1.66 7 2.32 7 3 C2.25 2.25 2.25 2.25 0 0 Z " fill="#696968" transform="translate(27,96)"/>
<path d="M0 0 C1.32 0.33 2.64 0.66 4 1 C4.33 1.99 4.66 2.98 5 4 C4.01 4 3.02 4 2 4 C2.33 5.32 2.66 6.64 3 8 C2.34 8 1.68 8 1 8 C0.67 8.66 0.34 9.32 0 10 C0 6.7 0 3.4 0 0 Z " fill="#9C8D82" transform="translate(79,56)"/>
<path d="M0 0 C-0.33 0.99 -0.66 1.98 -1 3 C-2.65 3 -4.3 3 -6 3 C-6.33 1.68 -6.66 0.36 -7 -1 C-3.51418144 -2.2020064 -3.32007656 -2.21338437 0 0 Z " fill="#F0BC89" transform="translate(49,44)"/>
<path d="M0 0 C0 1.32 0 2.64 0 4 C-0.99 4 -1.98 4 -3 4 C-3 3.34 -3 2.68 -3 2 C-5.64 2.33 -8.28 2.66 -11 3 C-11.33 2.34 -11.66 1.68 -12 1 C-10.56274129 0.83126522 -9.12518162 0.66509263 -7.6875 0.5 C-6.88699219 0.4071875 -6.08648437 0.314375 -5.26171875 0.21875 C-3 0 -3 0 0 0 Z " fill="#FBC790" transform="translate(33,13)"/>
<path d="M0 0 C2.64 0 5.28 0 8 0 C8.33 0.66 8.66 1.32 9 2 C7.68 1.67 6.36 1.34 5 1 C5.33 1.99 5.66 2.98 6 4 C4.68 3.67 3.36 3.34 2 3 C1.67 3.66 1.34 4.32 1 5 C0.67 3.35 0.34 1.7 0 0 Z " fill="#D5B197" transform="translate(43,11)"/>
<path d="M0 0 C4.62 0 9.24 0 14 0 C14 0.66 14 1.32 14 2 C12.02253397 2.73080266 10.01927511 3.39421747 8 4 C7.34 3.67 6.68 3.34 6 3 C6 2.34 6 1.68 6 1 C4.02 1 2.04 1 0 1 C0 0.67 0 0.34 0 0 Z " fill="#AA9E94" transform="translate(45,4)"/>
<path d="M0 0 C2.3125 0.1875 2.3125 0.1875 4 1 C1.75 3.5625 1.75 3.5625 -1 6 C-3.3125 5.8125 -3.3125 5.8125 -5 5 C-2.75 2.4375 -2.75 2.4375 0 0 Z " fill="#F5C797" transform="translate(26,0)"/>
<path d="M0 0 C3 1 3 1 4.1875 3.0625 C4.455625 3.701875 4.72375 4.34125 5 5 C3.865625 5.28875 2.73125 5.5775 1.5625 5.875 C0.386875 6.24625 -0.78875 6.6175 -2 7 C-2.33 7.66 -2.66 8.32 -3 9 C-3 8.01 -3 7.02 -3 6 C-2.34 6 -1.68 6 -1 6 C-1 5.34 -1 4.68 -1 4 C-0.34 4 0.32 4 1 4 C0.67 2.68 0.34 1.36 0 0 Z " fill="#AFAFAF" transform="translate(25,98)"/>
<path d="M0 0 C4.3890815 0.51035831 7.33708062 1.52214277 11 4 C7.86650268 5.04449911 7.01031744 4.93423645 4 4 C4 3.34 4 2.68 4 2 C2.35 2 0.7 2 -1 2 C-0.67 1.34 -0.34 0.68 0 0 Z " fill="#D18547" transform="translate(73,35)"/>
<path d="M0 0 C0 0.66 0 1.32 0 2 C-1.65 2 -3.3 2 -5 2 C-5 1.01 -5 0.02 -5 -1 C-6.98 -1 -8.96 -1 -11 -1 C-11 -1.33 -11 -1.66 -11 -2 C-6.23162543 -3.21981675 -3.90899519 -3.10420207 0 0 Z " fill="#A3A3A3" transform="translate(38,107)"/>
<path d="M0 0 C3.37462715 0.54723683 5.08235 1.0549 8 3 C8 3.66 8 4.32 8 5 C6.68 5.33 5.36 5.66 4 6 C3.71125 5.38125 3.4225 4.7625 3.125 4.125 C2.06279958 1.86674235 2.06279958 1.86674235 0 0 Z " fill="#FBFBFB" transform="translate(28,72)"/>
<path d="M0 0 C0.33 1.98 0.66 3.96 1 6 C-1.31 5.01 -3.62 4.02 -6 3 C-2.25 0 -2.25 0 0 0 Z " fill="#AFADAC" transform="translate(37,70)"/>
<path d="M0 0 C0.33 1.32 0.66 2.64 1 4 C-3.75 5.125 -3.75 5.125 -6 4 C-6 3.01 -6 2.02 -6 1 C-3.03 1.495 -3.03 1.495 0 2 C0 1.34 0 0.68 0 0 Z " fill="#9E6D3D" transform="translate(55,60)"/>
<path d="M0 0 C0.33 0.99 0.66 1.98 1 3 C-1.75924185 4.80411967 -2.88972103 5.0127245 -6.25 4.625 C-7.1575 4.41875 -8.065 4.2125 -9 4 C-9 3.67 -9 3.34 -9 3 C-7.02 3 -5.04 3 -3 3 C-3 2.34 -3 1.68 -3 1 C-2.01 0.67 -1.02 0.34 0 0 Z " fill="#E1E0DD" transform="translate(69,58)"/>
<path d="M0 0 C6.0546875 -0.1953125 6.0546875 -0.1953125 8 0 C8.66 0.66 9.32 1.32 10 2 C6.7 2.33 3.4 2.66 0 3 C0 2.01 0 1.02 0 0 Z " fill="#22140C" transform="translate(0,49)"/>
<path d="M0 0 C0 0.33 0 0.66 0 1 C-1.65 1 -3.3 1 -5 1 C-5 1.66 -5 2.32 -5 3 C-7.31 2.34 -9.62 1.68 -12 1 C-8.00439392 -1.83022097 -4.57262677 -0.76210446 0 0 Z " fill="#BCBCBC" transform="translate(84,105)"/>
<path d="M0 0 C1.32 0 2.64 0 4 0 C3.67 1.65 3.34 3.3 3 5 C1.68 4.67 0.36 4.34 -1 4 C-0.67 2.68 -0.34 1.36 0 0 Z " fill="#EEE0D0" transform="translate(18,84)"/>
<path d="M0 0 C3.63 0.33 7.26 0.66 11 1 C10.67 2.32 10.34 3.64 10 5 C5.05 3.02 5.05 3.02 0 1 C0 0.67 0 0.34 0 0 Z " fill="#F0AF70" transform="translate(73,34)"/>
<path d="M0 0 C0.99 0.33 1.98 0.66 3 1 C2.34 1 1.68 1 1 1 C1.10613836 3.45224694 1.10613836 3.45224694 2 6 C4.47636012 7.37466625 4.47636012 7.37466625 7 8 C7 8.33 7 8.66 7 9 C5.02 9 3.04 9 1 9 C-0.61949011 6.42786866 -1.04408751 5.32330841 -0.625 2.25 C-0.41875 1.5075 -0.2125 0.765 0 0 Z " fill="#C0AC9A" transform="translate(15,19)"/>
<path d="M0 0 C0.99 0.33 1.98 0.66 3 1 C1.1875 4 1.1875 4 -1 7 C-1.99 7 -2.98 7 -4 7 C-4 6.34 -4 5.68 -4 5 C-3.34 5 -2.68 5 -2 5 C-1.34 3.35 -0.68 1.7 0 0 Z " fill="#D5D5D5" transform="translate(8,11)"/>
<path d="M0 0 C1.32 0 2.64 0 4 0 C4.33 1.32 4.66 2.64 5 4 C2.03 3.505 2.03 3.505 -1 3 C-1.33 3.99 -1.66 4.98 -2 6 C-1.125 1.125 -1.125 1.125 0 0 Z " fill="#9C7E62" transform="translate(62,74)"/>
<path d="M0 0 C-3.51187196 2.40814077 -5.72656908 3.36629408 -10 3 C-10 2.34 -10 1.68 -10 1 C-3.375 -1.125 -3.375 -1.125 0 0 Z " fill="#F0B26F" transform="translate(82,74)"/>
<path d="M0 0 C2.64 0 5.28 0 8 0 C8 0.99 8 1.98 8 3 C6.68 3.33 5.36 3.66 4 4 C4 3.34 4 2.68 4 2 C2.68 1.67 1.36 1.34 0 1 C0 0.67 0 0.34 0 0 Z " fill="#FCD7AD" transform="translate(63,71)"/>
<path d="M0 0 C2.475 0.99 2.475 0.99 5 2 C5 3.32 5 4.64 5 6 C2.525 5.01 2.525 5.01 0 4 C0 2.68 0 1.36 0 0 Z " fill="#351B0C" transform="translate(2,61)"/>
<path d="M0 0 C1.32 0.33 2.64 0.66 4 1 C4 1.66 4 2.32 4 3 C3.34 3 2.68 3 2 3 C2 4.98 2 6.96 2 9 C2.99 9.33 3.98 9.66 5 10 C3.68 10 2.36 10 1 10 C0.67 6.7 0.34 3.4 0 0 Z " fill="#825D47" transform="translate(0,56)"/>
<path d="M0 0 C0.598125 0.20625 1.19625 0.4125 1.8125 0.625 C-1.8125 5.5 -1.8125 5.5 -5.1875 6.625 C-5.1875 5.965 -5.1875 5.305 -5.1875 4.625 C-4.5275 4.625 -3.8675 4.625 -3.1875 4.625 C-3.1875 3.965 -3.1875 3.305 -3.1875 2.625 C-3.8475 2.295 -4.5075 1.965 -5.1875 1.625 C-2.1875 -0.375 -2.1875 -0.375 0 0 Z " fill="#EAE9E7" transform="translate(30.1875,45.375)"/>
<path d="M0 0 C2.0625 0.4375 2.0625 0.4375 4 1 C4.33 2.98 4.66 4.96 5 7 C1.26360784 5.75453595 0.81243487 4.36595047 -1 1 C-0.67 0.67 -0.34 0.34 0 0 Z " fill="#955F34" transform="translate(6,45)"/>
<path d="M0 0 C1.32 0.33 2.64 0.66 4 1 C3.67 2.98 3.34 4.96 3 7 C2.01 7.33 1.02 7.66 0 8 C0 7.01 0 6.02 0 5 C0.66 5 1.32 5 2 5 C1.34 3.35 0.68 1.7 0 0 Z " fill="#2B2827" transform="translate(14,28)"/>
<path d="M0 0 C2.875 -0.1875 2.875 -0.1875 6 0 C6.66 0.99 7.32 1.98 8 3 C5.69 3 3.38 3 1 3 C0.67 2.01 0.34 1.02 0 0 Z " fill="#311E0C" transform="translate(76,15)"/>
<path d="M0 0 C0.99 0 1.98 0 3 0 C3 1.65 3 3.3 3 5 C2.01 5.33 1.02 5.66 0 6 C-0.38218767 4.34385343 -0.71395102 2.67542976 -1 1 C-0.67 0.67 -0.34 0.34 0 0 Z " fill="#27211E" transform="translate(81,4)"/>
<path d="M0 0 C0 0.66 0 1.32 0 2 C0.99 2.33 1.98 2.66 3 3 C-0.3 3 -3.6 3 -7 3 C-5.40442685 -0.19114631 -3.35905282 0 0 0 Z " fill="#CACACA" transform="translate(64,106)"/>
<path d="M0 0 C0.66 0 1.32 0 2 0 C2 0.66 2 1.32 2 2 C3.32 1.67 4.64 1.34 6 1 C6 1.66 6 2.32 6 3 C6.99 3 7.98 3 9 3 C9 3.66 9 4.32 9 5 C5.65626525 4.44271087 2.96687001 3.64826111 0 2 C0 1.34 0 0.68 0 0 Z " fill="#9A9A9A" transform="translate(66,100)"/>
<path d="M0 0 C0.33 1.32 0.66 2.64 1 4 C-0.98 4.33 -2.96 4.66 -5 5 C-5 4.01 -5 3.02 -5 2 C-2 0 -2 0 0 0 Z " fill="#858585" transform="translate(72,92)"/>
<path d="M0 0 C0.99 1.485 0.99 1.485 2 3 C1.67 3.66 1.34 4.32 1 5 C3.97 5.495 3.97 5.495 7 6 C5.1875 7.0625 5.1875 7.0625 3 8 C2.01 7.67 1.02 7.34 0 7 C0 4.69 0 2.38 0 0 Z " fill="#3E3D40" transform="translate(59,81)"/>
<path d="M0 0 C0.99 0 1.98 0 3 0 C2.34 1.98 1.68 3.96 1 6 C0.34 6 -0.32 6 -1 6 C-1.33 4.68 -1.66 3.36 -2 2 C-1.34 2 -0.68 2 0 2 C0 1.34 0 0.68 0 0 Z " fill="#ACABAB" transform="translate(44,80)"/>
<path d="M0 0 C1.32 0 2.64 0 4 0 C4 1.98 4 3.96 4 6 C3.01 5.67 2.02 5.34 1 5 C0.67 3.35 0.34 1.7 0 0 Z " fill="#281405" transform="translate(20,42)"/>
<path d="M0 0 C1.32 0.66 2.64 1.32 4 2 C4 2.66 4 3.32 4 4 C1 5 1 5 -2 4 C-1.34 2.68 -0.68 1.36 0 0 Z " fill="#9B6334" transform="translate(48,28)"/>
<path d="M0 0 C2.64 0 5.28 0 8 0 C8 0.99 8 1.98 8 3 C5.6568787 2.74438677 3.32156597 2.40729228 1 2 C0.67 1.34 0.34 0.68 0 0 Z " fill="#F7C38C" transform="translate(64,24)"/>
<path d="M0 0 C-0.639375 0.309375 -1.27875 0.61875 -1.9375 0.9375 C-3.93610821 1.8345163 -3.93610821 1.8345163 -5 3 C-6.66617115 3.04063832 -8.33388095 3.042721 -10 3 C-10 2.34 -10 1.68 -10 1 C-6.78548731 -0.60725635 -3.56387464 -0.05748185 0 0 Z " fill="#D08A4E" transform="translate(64,18)"/>
<path d="M0 0 C0 1.65 0 3.3 0 5 C-2.97 4.505 -2.97 4.505 -6 4 C-2.17391304 0 -2.17391304 0 0 0 Z " fill="#BAA492" transform="translate(84,9)"/>
<path d="M0 0 C3.42298577 1.14099526 4.14758766 2.00085621 6 5 C6 5.99 6 6.98 6 8 C2.24623848 6.74874616 1.75926711 5.4347596 0 2 C0 1.34 0 0.68 0 0 Z " fill="#9A9A9A" transform="translate(36,98)"/>
<path d="M0 0 C2.92879371 0.62759865 5.36095629 1.58622659 8 3 C8 3.33 8 3.66 8 4 C5.69 4 3.38 4 1 4 C0.67 2.68 0.34 1.36 0 0 Z " fill="#B2B2B2" transform="translate(63,101)"/>
<path d="M0 0 C0.33 0.99 0.66 1.98 1 3 C0.01 4.485 0.01 4.485 -1 6 C-1.99 5.67 -2.98 5.34 -4 5 C-4 4.01 -4 3.02 -4 2 C-2.68 1.34 -1.36 0.68 0 0 Z " fill="#171617" transform="translate(46,90)"/>
<path d="M0 0 C2.475 0.495 2.475 0.495 5 1 C4.67 2.65 4.34 4.3 4 6 C3.67 5.34 3.34 4.68 3 4 C2.34 4 1.68 4 1 4 C0.67 2.68 0.34 1.36 0 0 Z " fill="#616062" transform="translate(65,84)"/>
<path d="M0 0 C1.98 0.99 1.98 0.99 4 2 C4 2.99 4 3.98 4 5 C4.66 5.33 5.32 5.66 6 6 C3.03 5.505 3.03 5.505 0 5 C0 3.35 0 1.7 0 0 Z " fill="#1A1919" transform="translate(60,81)"/>
<path d="M0 0 C0.66 0.66 1.32 1.32 2 2 C2.99 1.67 3.98 1.34 5 1 C3.25 5.875 3.25 5.875 1 7 C0.67 4.69 0.34 2.38 0 0 Z " fill="#C0B8B2" transform="translate(29,61)"/>
<path d="M0 0 C3.3 0.33 6.6 0.66 10 1 C10 1.33 10 1.66 10 2 C2.25 3.125 2.25 3.125 0 2 C0 1.34 0 0.68 0 0 Z " fill="#D99A60" transform="translate(23,54)"/>
<path d="M0 0 C2.375 -0.1875 2.375 -0.1875 5 0 C5.66 0.99 6.32 1.98 7 3 C4.69 3 2.38 3 0 3 C0 2.01 0 1.02 0 0 Z " fill="#4C290C" transform="translate(0,46)"/>
<path d="M0 0 C1.65 0 3.3 0 5 0 C4.01 0.33 3.02 0.66 2 1 C2 2.32 2 3.64 2 5 C-0.97 4.505 -0.97 4.505 -4 4 C-2.68 3.67 -1.36 3.34 0 3 C0 2.01 0 1.02 0 0 Z " fill="#764821" transform="translate(17,41)"/>
<path d="M0 0 C1.8125 0.8125 1.8125 0.8125 2.8125 2.8125 C-0.1575 2.8125 -3.1275 2.8125 -6.1875 2.8125 C-2.77144161 -0.23755214 -2.77144161 -0.23755214 0 0 Z " fill="#A8A29E" transform="translate(74.1875,15.1875)"/>
<path d="M0 0 C1.32 0 2.64 0 4 0 C3.67 0.99 3.34 1.98 3 3 C2.34 3 1.68 3 1 3 C0.34 4.32 -0.32 5.64 -1 7 C-1.33 6.01 -1.66 5.02 -2 4 C-1.34 4 -0.68 4 0 4 C0 2.68 0 1.36 0 0 Z " fill="#E6A566" transform="translate(37,0)"/>
<path d="M0 0 C0.99 0.33 1.98 0.66 3 1 C3 2.32 3 3.64 3 5 C1.35 5 -0.3 5 -2 5 C-2.33 4.34 -2.66 3.68 -3 3 C-2.34 3 -1.68 3 -1 3 C-0.67 2.01 -0.34 1.02 0 0 Z " fill="#3F3C3B" transform="translate(23,87)"/>
<path d="M0 0 C1.65 0 3.3 0 5 0 C4.34 1.32 3.68 2.64 3 4 C2.01 4 1.02 4 0 4 C0 2.68 0 1.36 0 0 Z " fill="#D29B66" transform="translate(67,77)"/>
<path d="M0 0 C0.66 0 1.32 0 2 0 C1.979375 0.78375 1.95875 1.5675 1.9375 2.375 C1.81315937 4.98114961 1.81315937 4.98114961 3 7 C1.68 7.33 0.36 7.66 -1 8 C-1.125 2.25 -1.125 2.25 0 0 Z " fill="#C8B39F" transform="translate(62,67)"/>
<path d="M0 0 C2.475 0.495 2.475 0.495 5 1 C4.67 2.32 4.34 3.64 4 5 C2.68 4.67 1.36 4.34 0 4 C0 2.68 0 1.36 0 0 Z " fill="#E4A16C" transform="translate(9,56)"/>
<path d="M0 0 C2.475 0.495 2.475 0.495 5 1 C5 2.65 5 4.3 5 6 C3.2925002 4.71937515 1.62626404 3.38232443 0 2 C0 1.34 0 0.68 0 0 Z " fill="#1E1510" transform="translate(79,42)"/>
<path d="M0 0 C1.32 0 2.64 0 4 0 C4 1.98 4 3.96 4 6 C2.68 5.67 1.36 5.34 0 5 C0.99 5 1.98 5 3 5 C3 4.34 3 3.68 3 3 C2.01 3 1.02 3 0 3 C0 2.01 0 1.02 0 0 Z " fill="#BEB5AF" transform="translate(63,33)"/>
<path d="M0 0 C1.65 0 3.3 0 5 0 C5 0.99 5 1.98 5 3 C3.35 3.33 1.7 3.66 0 4 C0 2.68 0 1.36 0 0 Z " fill="#FAF9F7" transform="translate(63,26)"/>
<path d="M0 0 C0.99 0 1.98 0 3 0 C3.33 1.32 3.66 2.64 4 4 C2.35 4.33 0.7 4.66 -1 5 C-0.67 3.35 -0.34 1.7 0 0 Z " fill="#FDD8A9" transform="translate(35,12)"/>
<path d="M0 0 C0.33 1.32 0.66 2.64 1 4 C0.34 4 -0.32 4 -1 4 C-1 4.66 -1 5.32 -1 6 C-2.32 6.33 -3.64 6.66 -5 7 C-5 6.34 -5 5.68 -5 5 C-4.34 5 -3.68 5 -3 5 C-3 4.01 -3 3.02 -3 2 C-2.01 2 -1.02 2 0 2 C0 1.34 0 0.68 0 0 Z " fill="#E2A160" transform="translate(79,5)"/>
</svg>
