<svg width="33" height="33" viewBox="0 0 33 33" fill="none" xmlns="http://www.w3.org/2000/svg">
<path fill-rule="evenodd" clip-rule="evenodd" d="M32.625 16.5C32.625 25.4056 25.4056 32.625 16.5 32.625C7.59441 32.625 0.375 25.4056 0.375 16.5C0.375 7.59441 7.59441 0.375 16.5 0.375C25.4056 0.375 32.625 7.59441 32.625 16.5ZM18.2917 27.25C18.2917 28.2395 17.4895 29.0417 16.5 29.0417C15.5105 29.0417 14.7083 28.2395 14.7083 27.25C14.7083 26.2605 15.5105 25.4583 16.5 25.4583C17.4895 25.4583 18.2917 26.2605 18.2917 27.25ZM16.5 4.75C12.9792 4.75 10.125 7.60418 10.125 11.125H12.125C12.125 8.70875 14.0838 6.75 16.5 6.75H16.669C18.9919 6.75 20.875 8.63311 20.875 10.956V11.8755C20.875 13.1368 20.0679 14.2566 18.8713 14.6555C16.858 15.3266 15.5 17.2107 15.5 19.3329V23.6667H17.5V19.3329C17.5 18.0715 18.3071 16.9517 19.5037 16.5528C21.517 15.8818 22.875 13.9977 22.875 11.8755V10.956C22.875 7.52854 20.0965 4.75 16.669 4.75H16.5Z" fill="black"/>
</svg>
