<svg width="17" height="12" viewBox="0 0 17 12" fill="none" xmlns="http://www.w3.org/2000/svg">
<path d="M12.7135 11.0656C12.8998 11.2472 13.1851 11.2589 13.3714 11.0656C13.5636 10.8663 13.5519 10.5851 13.3714 10.4035L3.49663 0.47181C3.31614 0.29017 3.01337 0.28431 2.83287 0.47181C2.6582 0.647592 2.6582 0.952279 2.83287 1.12806L12.7135 11.0656ZM8.12545 0.805795C7.10653 0.805795 6.18659 0.981576 5.33069 1.26869L6.27392 2.2179C6.86199 2.05384 7.46752 1.95423 8.12545 1.95423C11.8285 1.95423 14.7688 5.19447 14.7688 5.88001C14.7688 6.3429 13.8372 7.53236 12.3525 8.46986L13.2259 9.35462C15.0541 8.14759 16.1196 6.57142 16.1196 5.88001C16.1196 4.67884 12.9057 0.805795 8.12545 0.805795ZM8.12545 10.9601C9.19678 10.9601 10.1808 10.7726 11.0716 10.462L10.1284 9.51283C9.49954 9.70033 8.83579 9.81165 8.12545 9.81165C4.41075 9.81165 1.47043 6.70033 1.47043 5.88001C1.47043 5.48744 2.45442 4.22767 4.03229 3.24329L3.14146 2.34681C1.24336 3.56556 0.119629 5.18275 0.119629 5.88001C0.119629 7.08119 3.40347 10.9601 8.12545 10.9601ZM11.0192 6.99915C11.1706 6.65931 11.2521 6.27259 11.2521 5.88001C11.2521 4.12806 9.86053 2.73939 8.12545 2.73939C7.7237 2.73939 7.35107 2.82142 7.00755 2.96204L11.0192 6.99915ZM8.12545 9.0265C8.56796 9.0265 8.98717 8.92103 9.36563 8.73939L5.27247 4.62025C5.08615 5.00111 4.98717 5.42884 4.98717 5.88587C4.99299 7.59095 6.37873 9.0265 8.12545 9.0265Z" fill="#1C1C1E"/>
</svg>
