<svg width="17" height="11" viewBox="0 0 17 11" fill="none" xmlns="http://www.w3.org/2000/svg">
<path d="M8.6152 10.0902C13.3954 10.0902 16.6094 6.23581 16.6094 5.04221C16.6094 3.84862 13.3838 0 8.6152 0C3.90486 0 0.609375 3.84862 0.609375 5.04221C0.609375 6.23581 3.89322 10.0902 8.6152 10.0902ZM8.6152 8.94905C4.9005 8.94905 1.96018 5.85735 1.96018 5.04221C1.96018 4.36099 4.9005 1.14119 8.6152 1.14119C12.3124 1.14119 15.2586 4.36099 15.2586 5.04221C15.2586 5.85735 12.3124 8.94905 8.6152 8.94905ZM8.6152 8.16885C10.3503 8.16885 11.7418 6.74236 11.7418 5.04221C11.7418 3.30131 10.3503 1.9214 8.6152 1.9214C6.86847 1.9214 5.47109 3.30131 5.47691 5.04221C5.48856 6.74236 6.86847 8.16885 8.6152 8.16885ZM8.60938 6.04949C8.05042 6.04949 7.59627 5.59534 7.59627 5.04221C7.59627 4.48908 8.05042 4.03493 8.60938 4.03493C9.16833 4.03493 9.62248 4.48908 9.62248 5.04221C9.62248 5.59534 9.16833 6.04949 8.60938 6.04949Z" fill="#1C1C1E"/>
</svg>
