<svg width="25" height="21" viewBox="0 0 25 21" fill="none" xmlns="http://www.w3.org/2000/svg">
<path d="M0 10.7649C0 11.1611 0.171685 11.5573 0.475436 11.8478L9.19176 20.5509C9.50872 20.8547 9.85209 21 10.2351 21C11.0671 21 11.6746 20.4057 11.6746 19.6001C11.6746 19.1775 11.5161 18.8209 11.2388 18.5567L8.2673 15.5457L4.4374 12.0459L7.51453 12.2308H23.5209C24.3925 12.2308 25 11.6233 25 10.7649C25 9.89325 24.3925 9.28575 23.5209 9.28575H7.51453L4.45061 9.47064L8.2673 5.97091L11.2388 2.95981C11.5161 2.69568 11.6746 2.33911 11.6746 1.9165C11.6746 1.1109 11.0671 0.516602 10.2351 0.516602C9.85209 0.516602 9.49551 0.661874 9.15214 0.992037L0.475436 9.66874C0.171685 9.95928 0 10.3555 0 10.7649Z" fill="#005883"/>
</svg>
