<svg width="22" height="25" viewBox="0 0 22 25" fill="none" xmlns="http://www.w3.org/2000/svg">
<path d="M4.60488 24.7421H20.2114C20.8471 24.7421 21.339 24.2838 21.339 23.6915C21.339 23.1886 20.9671 22.8198 20.5112 22.6186C19.0358 22.004 18.7479 20.1041 20.2473 18.7741C20.8591 18.2712 21.327 17.7124 21.327 16.5837V4.21201C21.327 1.79803 19.9954 0.535156 17.4163 0.535156H4.62888C2.06179 0.535156 0.718262 1.78685 0.718262 4.21201V21.0987C0.718262 23.4904 2.06179 24.7421 4.60488 24.7421ZM17.2004 2.75915C18.364 2.75915 18.9398 3.32912 18.9398 4.3573V16.2372C18.9398 16.7848 18.6039 17.0866 18.0041 17.0866H6.22431V2.75915H17.2004ZM3.10542 17.4777V4.3573C3.10542 3.4297 3.57325 2.88209 4.52091 2.7815V17.0978C3.98111 17.1425 3.51327 17.2766 3.10542 17.4777ZM4.92877 22.641C3.64522 22.641 2.97346 21.9593 2.97346 20.9087C2.97346 19.8917 3.74119 19.1877 5.01274 19.1877H16.9845C17.1164 19.1877 17.2484 19.1765 17.3684 19.1541C16.7686 20.3388 16.8405 21.624 17.4883 22.641H4.92877Z" fill="black"/>
</svg>
