<svg width="29" height="29" viewBox="0 0 29 29" fill="none" xmlns="http://www.w3.org/2000/svg">
<path d="M13.4104 29H15.8804C16.6903 29 17.2977 28.5141 17.4731 27.7177L18.148 24.8698C18.6069 24.7078 19.0389 24.5323 19.4438 24.3434L21.9408 25.8821C22.6022 26.3005 23.3985 26.233 23.9519 25.6796L25.6931 23.9384C26.2465 23.385 26.3275 22.5617 25.8821 21.8868L24.3569 19.4168C24.5458 19.0119 24.7213 18.5799 24.8563 18.1615L27.7312 17.4866C28.5276 17.3112 29 16.7038 29 15.8939V13.4644C29 12.668 28.5276 12.0472 27.7312 11.8717L24.8833 11.1833C24.7348 10.7109 24.5458 10.2925 24.3839 9.92805L25.9091 7.40402C26.341 6.71565 26.287 5.94629 25.7066 5.37939L23.9519 3.63822C23.385 3.12531 22.6697 3.03083 21.9813 3.40876L19.4438 4.97447C19.0524 4.7855 18.6204 4.61004 18.1615 4.44807L17.4731 1.55961C17.2977 0.763253 16.6903 0.277344 15.8804 0.277344H13.4104C12.5871 0.277344 11.9797 0.763253 11.8042 1.55961L11.1293 4.43457C10.6704 4.58304 10.225 4.75851 9.82007 4.96097L7.29604 3.40876C6.60767 3.03083 5.9058 3.11182 5.3254 3.63822L3.57073 5.37939C2.99034 5.94629 2.93635 6.71565 3.36827 7.40402L4.89349 9.92805C4.73151 10.2925 4.55605 10.7109 4.39408 11.1833L1.54611 11.8717C0.749756 12.0472 0.277344 12.668 0.277344 13.4644V15.8939C0.277344 16.7038 0.749756 17.3112 1.54611 17.4866L4.42107 18.1615C4.55605 18.5799 4.73151 19.0119 4.92048 19.4168L3.39526 21.8868C2.94985 22.5617 3.03083 23.385 3.59773 23.9384L5.3254 25.6796C5.8788 26.233 6.67515 26.3005 7.35003 25.8821L9.83357 24.3434C10.2385 24.5323 10.6704 24.7078 11.1293 24.8698L11.8042 27.7177C11.9797 28.5141 12.5871 29 13.4104 29ZM14.6387 19.3628C12.0472 19.3628 9.92805 17.2302 9.92805 14.6252C9.92805 12.0472 12.0472 9.92805 14.6387 9.92805C17.2437 9.92805 19.3628 12.0472 19.3628 14.6252C19.3628 17.2302 17.2437 19.3628 14.6387 19.3628Z" fill="black"/>
</svg>
