<svg width="16" height="16" viewBox="0 0 16 16" fill="none" xmlns="http://www.w3.org/2000/svg">
<path d="M9.21554 14.8937C10.1208 14.734 10.9858 14.3977 11.7611 13.9037C12.5364 13.4098 13.2068 12.768 13.7341 12.015C14.2613 11.262 14.6351 10.4125 14.8341 9.51508C15.033 8.61761 15.0533 7.68975 14.8937 6.78446C14.734 5.87917 14.3977 5.01419 13.9037 4.2389C13.4098 3.46361 12.768 2.7932 12.015 2.26594C11.262 1.73867 10.4125 1.36489 9.51508 1.16593C8.61761 0.966965 7.68975 0.946719 6.78446 1.10635C5.87917 1.26597 5.01419 1.60235 4.2389 2.09626C3.46361 2.59018 2.7932 3.23196 2.26593 3.98497C1.73867 4.73797 1.36489 5.58746 1.16593 6.48492C0.966965 7.38239 0.946719 8.31025 1.10635 9.21554C1.26597 10.1208 1.60235 10.9858 2.09626 11.7611C2.59018 12.5364 3.23196 13.2068 3.98497 13.7341C4.73797 14.2613 5.58746 14.6351 6.48492 14.8341C7.38239 15.033 8.31025 15.0533 9.21554 14.8937L9.21554 14.8937Z" stroke="black"/>
<path d="M8 8L8 12" stroke="black" stroke-linecap="square"/>
<rect x="7.5" y="5" width="1" height="1" fill="black"/>
</svg>
