<svg width="14" height="18" viewBox="0 0 14 18" fill="none" xmlns="http://www.w3.org/2000/svg">
<path d="M5 11.45C5 10.7873 5.53726 10.25 6.2 10.25H7.8C8.46274 10.25 9 10.7873 9 11.45V11.45C9 12.4441 8.19411 13.25 7.2 13.25H6.8C5.80589 13.25 5 12.4441 5 11.45V11.45Z" stroke="black" stroke-width="0.5"/>
<path d="M8 10V9.75C8 9.19772 7.55228 8.75 7 8.75V8.75C6.44772 8.75 6 9.19772 6 9.75V10" stroke="black" stroke-width="0.5" stroke-linecap="round"/>
<circle cx="7" cy="11.75" r="0.5" fill="black"/>
<path d="M11.1968 14.3878L7.29062 17.178C7.11677 17.3021 6.88323 17.3021 6.70938 17.178L2.80319 14.3878C1.35781 13.3554 0.5 11.6885 0.5 9.91229V6.5H13.5V9.91229C13.5 11.6885 12.6422 13.3554 11.1968 14.3878Z" stroke="black" stroke-linecap="round"/>
<path d="M10.5453 1.5194L13.3939 2.74025C13.7616 2.89783 14 3.25937 14 3.6594V4.85C14 4.93284 13.9328 5 13.85 5H0.15C0.0671573 5 0 4.93284 0 4.85V3.6594C0 3.25937 0.238397 2.89783 0.606081 2.74025L3.45473 1.5194C5.71867 0.549143 8.28134 0.549144 10.5453 1.5194Z" fill="#005883"/>
</svg>
