<svg width="16" height="18" viewBox="0 0 16 18" fill="none" xmlns="http://www.w3.org/2000/svg">
<path d="M8.77299 0.70613L14.7577 2.30204C15.1954 2.41878 15.5 2.81523 15.5 3.26828V9.2889C15.5 11.295 14.4974 13.1684 12.8282 14.2812L8.5547 17.1302C8.2188 17.3541 7.7812 17.3541 7.4453 17.1302L3.1718 14.2812C1.50261 13.1684 0.5 11.295 0.5 9.2889V3.26828C0.5 2.81523 0.804584 2.41878 1.24234 2.30204L7.22701 0.70613C7.73349 0.57107 8.26651 0.57107 8.77299 0.70613Z" stroke="black" stroke-linecap="round"/>
<path d="M5.5 8.5L7.32322 10.3232C7.42085 10.4209 7.57915 10.4209 7.67678 10.3232L11 7" stroke="black" stroke-linecap="round"/>
</svg>
